<?xml version="1.0" encoding="utf-8"?>
<!-- Generator: Adobe Illustrator 16.0.2, SVG Export Plug-In . SVG Version: 6.00 Build 0)  -->
<!DOCTYPE svg PUBLIC "-//W3C//DTD SVG 1.1//EN" "http://www.w3.org/Graphics/SVG/1.1/DTD/svg11.dtd">
<svg version="1.1" id="Layer_1" xmlns="http://www.w3.org/2000/svg" xmlns:xlink="http://www.w3.org/1999/xlink" x="0px" y="0px"
	 width="1920.001px" height="1069.934px" viewBox="0 0 1920.001 1069.934" enable-background="new 0 0 1920.001 1069.934"
	 xml:space="preserve">
<path fill-rule="evenodd" clip-rule="evenodd" fill="#286633" d="M-19.236-245.802c0-323.097,0-646.192,0-969.288
	c5.342-0.61,10.104,1.734,15.08,2.973c39.551,9.846,79.533,17.441,119.818,23.611c25.203,3.859,50.461,7.351,75.779,10.185
	c24.027,2.689,48.09,5.238,72.246,6.814c7.954,0.519,15.972,0.692,23.871,1.634c20.217,2.41,40.582,2.283,60.835,4.116
	c11.77,1.064,23.647,0.662,35.497,1.393c20.293,1.251,40.699,1.258,61.027,1.513c36.328,0.455,72.696,1.613,109.047-0.953
	c19.51-1.377,39.119-0.037,58.728-1.396c17.44-1.208,34.93-1.963,52.394-3.221c17.729-1.277,35.375-3.295,53.01-5.278
	c20.203-2.271,40.279-5.698,60.386-8.789c44.351-6.816,88.255-15.959,132.122-25.326c9.459-2.02,18.655-6.069,28.703-4.845
	c0.576,0.07,1.385-0.556,1.86-1.067c2.645-2.845,6.277-3.517,9.757-4.307c16.596-3.763,33.185-7.566,49.845-11.023
	c34.824-7.226,69.752-13.89,104.864-19.617c32.035-5.227,64.226-9.216,96.478-12.667c20.201-2.162,40.502-3.585,60.793-4.652
	c16.196-0.853,32.48-1.388,48.648-1.404c59.31-0.062,118.63-1.82,177.947,0.936c23.655,1.099,47.326,1.813,70.986,3.085
	c22.623,1.215,45.184,3.018,67.768,4.686c21.314,1.574,42.512,4.124,63.769,6.155c25.652,2.452,51.14,6.145,76.581,10.017
	c41.291,6.283,82.352,13.923,122.768,24.654c3.021,0.803,6.026,1.396,9.158,1.188c0.078,3.864,0.226,7.728,0.226,11.592
	c0.011,316.178,0.009,632.355,0.024,948.532c0,3.604,0.215,7.207,0.329,10.811l-0.601-0.113c-1.754,0.404-3.576,0.623-5.249,1.242
	c-14.724,5.447-29.435,10.912-44.515,15.342c-12.601,3.701-25.065,7.873-37.687,11.498c-26.754,7.686-53.871,13.861-81.159,19.34
	c-17.416,3.498-34.618,8.219-52.139,10.984c-21.359,3.373-42.514,7.871-63.921,10.934c-17.838,2.553-35.612,5.551-53.456,8.055
	c-18.609,2.611-37.263,4.916-55.908,7.264c-14.302,1.803-28.612,3.535-42.935,5.164c-12.019,1.367-24.057,2.572-36.093,3.783
	c-13.569,1.365-27.137,2.789-40.725,3.945c-15.129,1.289-30.336,1.84-45.41,3.568c-17.151,1.969-34.382,2.74-51.567,3.984
	c-11.534,0.838-23.117,1.598-34.694,2.131c-18.249,0.844-36.454,2.703-54.752,2.793c-1.289,0.006-2.598-0.004-3.861,0.211
	c-15.059,2.561-30.341,0.82-45.49,2.557c-12.24,1.404-24.668,0.572-37.043,1.42c-18.732,1.285-37.58,0.391-56.383,1.699
	c-13.61,0.947-27.338,0.404-41.009,0.244c-70.136-0.828-140.276,1.32-210.424-1.217c-25.215-0.912-50.479-1.758-75.729-2.281
	c-11.004-0.229-22.131-0.58-33.159-1.613c-16.147-1.514-32.38-1.08-48.562-2.383c-11.779-0.945-23.672-1.367-35.459-2.219
	c-17.957-1.301-35.947-2.305-53.899-3.875c-20.243-1.771-40.558-2.879-60.775-5.039c-6.663-0.711-13.331-1.141-19.995-1.693
	c-6.92-0.574-13.859-1.086-20.77-1.82c-11.516-1.225-22.973-3.17-34.514-3.961c-15.951-1.092-31.715-3.666-47.559-5.506
	c-20.184-2.342-40.324-5.361-60.469-8.074c-23.482-3.162-46.914-6.629-70.255-10.568c-34.766-5.867-69.257-13.227-103.788-20.383
	c-27.037-5.602-53.667-12.693-80.244-19.936c-22.578-6.152-44.959-13.193-66.869-21.594
	C-10.216-243.493-14.476-245.638-19.236-245.802z"/>
<path fill-rule="evenodd" clip-rule="evenodd" fill="#144B20" d="M0,0c4.761,0.164,9.021,2.309,13.279,3.941
	c21.91,8.4,44.291,15.441,66.869,21.594c26.577,7.242,53.207,14.334,80.244,19.936c34.531,7.156,69.022,14.516,103.788,20.383
	c23.341,3.939,46.772,7.406,70.255,10.568c20.145,2.713,40.285,5.732,60.469,8.074c15.844,1.84,31.607,4.414,47.559,5.506
	c11.541,0.791,22.998,2.736,34.514,3.961c6.91,0.734,13.85,1.246,20.77,1.82c6.664,0.553,13.332,0.982,19.995,1.693
	c20.218,2.16,40.532,3.268,60.775,5.039c17.952,1.57,35.942,2.574,53.899,3.875c11.787,0.852,23.68,1.273,35.459,2.219
	c16.182,1.303,32.414,0.869,48.562,2.383c11.028,1.033,22.155,1.385,33.159,1.613c25.25,0.523,50.514,1.369,75.729,2.281
	c70.147,2.537,140.288,0.389,210.424,1.217c13.671,0.16,27.398,0.703,41.009-0.244c18.803-1.309,37.65-0.414,56.383-1.699
	c12.375-0.848,24.803-0.016,37.043-1.42c15.149-1.736,30.432,0.004,45.49-2.557c1.264-0.215,2.572-0.205,3.861-0.211
	c18.298-0.09,36.503-1.949,54.752-2.793c11.577-0.533,23.16-1.293,34.694-2.131c17.186-1.244,34.416-2.016,51.567-3.984
	c15.074-1.729,30.281-2.279,45.41-3.568c13.588-1.156,27.155-2.58,40.725-3.945c12.036-1.211,24.074-2.416,36.093-3.783
	c14.322-1.629,28.633-3.361,42.935-5.164c18.646-2.348,37.299-4.652,55.908-7.264c17.844-2.504,35.618-5.502,53.456-8.055
	c21.407-3.063,42.562-7.561,63.921-10.934c17.521-2.766,34.723-7.486,52.139-10.984c27.288-5.479,54.405-11.654,81.159-19.34
	c12.621-3.625,25.086-7.797,37.687-11.498c15.08-4.43,29.791-9.895,44.515-15.342c1.673-0.619,3.495-0.838,5.249-1.242
	c0.086,3.863,0.247,7.727,0.247,11.59c0.011,352.801,0.011,705.6,0.011,1058.398c-640.001,0-1280.001,0-1920.001,0
	C0,713.289,0,356.645,0,0z"/>
<path fill-rule="evenodd" clip-rule="evenodd" fill="#154B21" d="M1899.965-1637.506c-0.159,0.49-0.319,0.99-0.479,1.48
	c-3.13,0.21-6.13-0.38-9.15-1.18c-40.42-10.74-81.479-18.38-122.77-24.66c-25.44-3.87-50.93-7.56-76.58-10.02
	c-21.26-2.03-42.46-4.58-63.771-6.15c-22.59-1.67-45.149-3.47-67.77-4.69c-23.66-1.27-47.33-1.98-70.99-3.08
	c-59.31-2.76-118.63-1-177.939-0.94c-16.17,0.02-32.46,0.56-48.65,1.41c-20.29,1.06-40.59,2.49-60.79,4.65
	c-32.26,3.45-64.45,7.44-96.479,12.67c-35.11,5.72-70.04,12.39-104.87,19.61c-16.66,3.46-33.25,7.26-49.84,11.03
	c-3.48,0.79-30.86,8.2-40.32,10.22c-43.87,9.36-87.77,18.51-132.12,25.32c-20.11,3.09-40.19,6.52-60.39,8.79
	c-17.64,1.98-35.28,4-53.01,5.28c-17.46,1.26-34.95,2.01-52.39,3.22c-19.61,1.36-39.22,0.02-58.73,1.4
	c-36.35,2.56-72.72,1.4-109.05,0.95c-20.33-0.25-40.73-0.26-61.03-1.51c-11.85-0.73-23.72-0.33-35.49-1.4
	c-20.26-1.83-40.62-1.7-60.84-4.11c-7.9-0.94-15.91-1.12-23.87-1.64c-24.16-1.57-48.22-4.12-72.25-6.81
	c-25.31-2.83-50.57-6.33-75.77-10.19c-40.29-6.16-80.27-13.76-119.82-23.61c-4.98-1.23-9.74-3.58-15.08-2.97v-114.58h0.49v-218.26
	h523.19v0.13c461.49-0.18,922.97-0.12,1384.46-0.12c3.87,0,7.74,0.04,11.61,0.06c0.08,3.09,0.22,6.18,0.22,9.27
	c0.02,103.72,0.01,207.44,0.03,311.16C1899.726-1643.686,1899.886-1640.596,1899.965-1637.506z"/>
<path fill-rule="evenodd" clip-rule="evenodd" fill="#112C1F" d="M1900.956-2249.256c-0.02,11.79-0.189,23.59-0.3,35.39
	c-3.87-0.02-7.74-0.06-11.61-0.06c-493.909,0-987.82-0.07-1481.729,0.15c-31.82,0.01-61.12,9.9-85.75,30.53
	c-19.67,16.48-31.38,38.12-35.52,63.5c-2.03,12.43-2.68,25.09-4.74,37.51c-4.56,27.49-17.99,49.85-40.8,65.99
	c-18.07,12.79-38.34,20.44-60.64,20.53c-66.32,0.26-132.64,0.06-198.96,0.04v-329.81h1920
	C1900.926-2300.076,1900.986-2274.666,1900.956-2249.256z"/>
<path fill-rule="evenodd" clip-rule="evenodd" fill="#B1C6A2" d="M4073.711-940.255l-0.604-0.014l-0.601,0.072
	c-0.114-3.604-0.329-7.207-0.329-10.811c-0.016-316.177-0.014-632.354-0.024-948.532c0-3.864-0.147-7.728-0.226-11.592
	c0.159-0.495,0.319-0.99,0.478-1.486c0,0.001,0.654,0.02,0.654,0.02l0.652-0.042
	C4073.711-1588.51,4073.711-1264.385,4073.711-940.255z"/>
<path fill-rule="evenodd" clip-rule="evenodd" fill="#A1B192" d="M4073.711-1912.64l-0.652,0.042c0,0-0.654-0.019-0.654-0.02
	c-0.085-3.091-0.245-6.181-0.245-9.271c-0.014-103.718-0.009-207.435-0.021-311.151c0-3.092-0.145-6.183-0.223-9.273
	c0.103-11.797,0.28-23.596,0.294-35.395c0.028-25.407-0.027-50.814-0.047-76.222c0.476,0.337,1.613-0.783,1.563,0.774
	c-0.065,2.063-0.016,4.129-0.016,6.193C4073.711-2202.188,4073.711-2057.414,4073.711-1912.64z"/>
<path fill-rule="evenodd" clip-rule="evenodd" fill="#B3BED3" d="M3118.296-2095.887c-5.693,0.657-10.565,2.4-15.817,1.199
	c-8.167-1.869-11.143-4.979-10.459-13.404c0.519-6.385,1.938-12.7,3.037-19.032c1.32-7.601,2.629-15.206,4.136-22.771
	c0.698-3.504,7.766-5.727,10.331-3.382c1.386,1.266,0.611,2.859,0.355,4.324c-2,11.397-4.014,22.793-6.033,34.188
	c-0.089,0.505-0.301,0.989-0.383,1.496c-0.629,3.889-1.247,7.885,3.014,10.216c4.209,2.302,8.504,1.53,12.606-0.452
	c2.2-1.063,2.001-3.387,2.354-5.379c2.338-13.167,4.626-26.344,7.056-39.494c0.926-5.01,5.574-7.399,10.009-5.333
	c2.304,1.073,1.341,3.113,1.057,4.745c-2.114,12.161-4.28,24.313-6.521,36.452c-1.307,7.077-2.373,14.232-4.255,21.161
	c-5.446,20.042-20.652,22.538-36.951,18.886c-1.528-0.344-2.921-1.052-2.881-3.023c0.05-2.419,1.625-2.938,3.622-2.948
	c2.576-0.014,5.153,0.011,7.728-0.044C3111.718-2078.724,3116.82-2083.477,3118.296-2095.887z"/>
<path fill-rule="evenodd" clip-rule="evenodd" fill="#B3BED3" d="M2759.854-2095.762c2.488-14.441,4.823-28.113,7.203-41.778
	c1.941-11.146,4.098-22.258,5.814-33.438c0.549-3.579,1.808-5.709,5.484-6.191c7.918-1.038,15.813-2.117,23.79-0.393
	c7.79,1.684,11.974,5.635,12.52,13.524c0.813,11.759-1.395,23.115-6.94,33.579c-5.026,9.486-13.919,11.728-23.682,11.039
	c-10.707-0.755-8.432-2.108-10.773,8.594c-0.66,3.01-1.057,6.078-1.581,9.118c-1.11,6.435-1.112,6.445-7.778,6.353
	C2762.92-2095.368,2761.932-2095.547,2759.854-2095.762z M2776.48-2128.679c3.701,1.394,7.064,0.826,10.361,0.629
	c5.617-0.337,9.795-3.192,12.139-8.252c3.512-7.587,5.225-15.675,4.752-24.009c-0.457-8.049-11.877-13.568-18.902-9.46
	c-1.297,0.759-1.518,2.066-1.731,3.267C2780.852-2153.901,2778.675-2141.285,2776.48-2128.679z"/>
<path fill-rule="evenodd" clip-rule="evenodd" fill="#B3BED3" d="M2894.395-2153.668c2.604-0.491,5.315-1.194,8.072-1.487
	c10.068-1.069,16.639,4.041,17.267,14.091c0.733,11.724-1.452,23.098-6.415,33.766c-3.229,6.939-8.706,11.096-16.52,12.455
	c-6.815,1.187-13.269,0.135-19.829-1.328c-3.81-0.851-4.821-2.564-4.053-6.531c2.784-14.378,5.162-28.834,7.689-43.262
	c1.508-8.607,2.93-17.229,4.542-25.817c0.92-4.895,6.09-7.403,10.242-5.104c1.719,0.952,1.222,2.62,0.959,4.116
	c-0.798,4.555-1.696,9.094-2.409,13.662C2893.674-2157.403,2892.924-2155.582,2894.395-2153.668z M2889.887-2101.672
	c6.433,0.307,10.816-2.688,13.473-8.409c3.863-8.321,5.05-17.235,5.719-26.254c0.176-2.372-0.516-4.644-1.439-6.757
	c-1.564-3.581-5.264-5.374-9.686-4.567c-3.547,0.647-6.696,1.401-7.377,6.318c-1.554,11.217-3.939,22.314-5.824,33.489
	C2883.736-2101.836,2884.041-2101.629,2889.887-2101.672z"/>
<path fill-rule="evenodd" clip-rule="evenodd" fill="#B3BED3" d="M2696.74-2153.607c5.43-0.48,9.891-2.116,14.607-1.558
	c8.909,1.053,12.44,4.843,11.802,13.791c-0.401,5.623-1.635,11.191-2.595,16.768c-1.439,8.371-2.96,16.728-4.463,25.088
	c-0.305,1.697-0.057,3.864-2.613,4.024c-2.539,0.159-5.227,0.79-7.571-0.41c-1.692-0.866-0.832-2.795-0.586-4.223
	c1.661-9.639,3.409-19.263,5.127-28.893c0.588-3.295,1.346-6.572,1.71-9.892c0.518-4.715-2.064-7.927-6.693-8.761
	c-6.436-1.159-10.594,1.668-11.797,8.233c-2.415,13.164-4.699,26.353-7.115,39.516c-0.711,3.878-6.684,6.423-9.986,4.271
	c-1.926-1.256-1.039-3.276-0.753-4.962c1.379-8.118,2.872-16.216,4.294-24.327c2.712-15.465,5.346-30.945,8.166-46.391
	c0.412-2.26-0.057-5.285,3.704-5.829c6.722-0.972,7.917,0.198,6.999,7.017C2698.264-2164.864,2696.598-2159.693,2696.74-2153.607z"
	/>
<path fill-rule="evenodd" clip-rule="evenodd" fill="#B2BDD1" d="M2486.229-2094.115c-2.657-0.364-7.507-0.957-12.328-1.729
	c-1.553-0.249-2.905-1.034-2.775-3.056c0.139-2.185,1.275-3.246,3.424-3.319c6.176-0.214,12.385-0.113,18.521-0.729
	c8.075-0.81,12.491-5.361,13.993-13.134c1.048-5.429-0.462-9.718-5.167-12.634c-3.497-2.167-7.215-3.974-10.747-6.086
	c-8.762-5.24-11.618-11.506-9.881-21.38c2.73-15.528,10.659-22.307,26.487-22.237c4.35,0.019,8.705,0.777,13.038,1.343
	c1.859,0.242,3.436,0.948,3.287,3.42c-0.158,2.637-1.493,3.557-3.981,3.521c-4.38-0.062-8.769-0.136-13.142,0.049
	c-8.046,0.34-12.563,4.095-14.25,11.563c-1.686,7.465,0.28,11.689,7.529,15.901c3.115,1.811,6.362,3.395,9.467,5.224
	c7.283,4.292,9.983,10.854,8.859,19.017C2516.264-2101.694,2507-2094.297,2486.229-2094.115z"/>
<path fill-rule="evenodd" clip-rule="evenodd" fill="#B3BED3" d="M2629.121-2153.62c0.317,7.871-2.01,14.77-3.094,21.823
	c-1.56,10.162-3.383,20.284-5.227,30.399c-1.07,5.88-3.842,8.029-8.723,5.55c-2.709-1.375-4.232-1.272-6.651-0.253
	c-4.327,1.823-8.821,2.405-13.571,1.324c-8.101-1.845-11.321-5.909-10.305-14.336c0.678-5.607,1.855-11.156,2.848-16.724
	c1.397-7.844,2.783-15.688,4.269-23.516c0.722-3.807,6.839-6.467,10.052-4.329c1.844,1.226,1.055,3.27,0.758,4.972
	c-1.725,9.873-3.539,19.731-5.283,29.603c-0.537,3.037-1.208,6.085-1.354,9.15c-0.24,5.082,2.094,7.525,7.215,8.146
	c5.534,0.67,9.859-1.543,10.691-5.91c2.5-13.127,5.118-26.244,7.078-39.455c1.236-8.321,2.693-6.664,8.315-6.734
	C2626.902-2153.919,2627.666-2153.768,2629.121-2153.62z"/>
<path fill-rule="evenodd" clip-rule="evenodd" fill="#B3BED3" d="M2865.585-2153.681c0.308,1.1,0.628,1.616,0.552,2.064
	c-3.027,17.729-6.107,35.447-9.141,53.175c-0.86,5.031-5.604,3.769-7.172,2.731c-3.457-2.283-5.853-0.955-8.893,0.151
	c-3.629,1.321-7.43,1.735-11.386,0.962c-8.966-1.756-12.284-6.073-11.032-15.244c0.659-4.836,1.666-9.624,2.527-14.433
	c1.496-8.349,2.955-16.703,4.522-25.039c0.727-3.865,6.682-6.487,10.009-4.375c1.896,1.204,1.109,3.245,0.813,4.938
	c-1.729,9.871-3.556,19.726-5.307,29.593c-0.538,3.038-1.196,6.088-1.348,9.154c-0.249,5.065,2.097,7.552,7.182,8.19
	c5.519,0.692,9.899-1.523,10.726-5.86c2.5-13.128,4.809-26.293,7.193-39.443c1.24-6.842,1.241-6.849,8.15-6.797
	C2863.749-2153.906,2864.516-2153.779,2865.585-2153.681z"/>
<path fill-rule="evenodd" clip-rule="evenodd" fill="#B3BED3" d="M2573.093-2134.869c-0.532,9.046-1.998,17.908-5.831,26.214
	c-5.355,11.604-16.438,16.724-28.748,13.554c-5.526-1.423-9.365-4.631-10.256-10.284c-2.379-15.089,0.325-29.369,9.119-41.883
	c5.494-7.815,18.795-10.2,27.479-6.144c3.461,1.617,5.69,4.26,6.998,7.841C2573.127-2142.082,2573.131-2138.498,2573.093-2134.869z
	 M2562.307-2133.697c-0.066-3.582,0.029-5.862-0.697-8.129c-2.142-6.688-7.625-8.482-13.026-4.09
	c-3.071,2.498-4.872,5.874-6.196,9.554c-2.451,6.815-3.456,13.914-4.063,21.068c-0.64,7.525,1.604,12.632,5.759,13.774
	c4.675,1.286,9.67-2.035,12.803-8.851C2560.465-2118.159,2561.641-2126.523,2562.307-2133.697z"/>
<path fill-rule="evenodd" clip-rule="evenodd" fill="#B4BED4" d="M2658.553-2166.358c0.77,4.613-1.119,8.539-0.981,13.015
	c3.852,1.066,7.69,0.311,11.438,0.591c1.381,0.103,3.362-0.624,3.599,1.695c0.225,2.2-0.243,4.155-2.954,4.581
	c-3.305,0.519-6.59,1.369-9.908,1.516c-3.219,0.143-4.426,1.518-4.902,4.563c-1.518,9.67-3.494,19.271-4.855,28.961
	c-0.972,6.919,1.52,9.471,8.413,9.743c1.03,0.041,2.078-0.098,3.093,0.039c1.607,0.218,3.93-0.891,4.486,1.592
	c0.569,2.531-1.21,3.881-3.421,4.258c-4.294,0.733-8.529,2.092-12.995,1.4c-7.691-1.189-10.826-4.574-10.883-12.433
	c-0.053-7.52,2.221-14.754,3.157-22.16c0.419-3.319,0.948-6.646,1.749-9.891c0.834-3.373,1.414-6.162-3.604-6.031
	c-1.602,0.041-1.906-1.444-1.674-2.827c0.327-1.946-0.023-4.928,2.693-4.808c4.551,0.2,5.553-2.34,6.248-5.923
	C2648.901-2166.982,2648.974-2166.968,2658.553-2166.358z"/>
<path fill-rule="evenodd" clip-rule="evenodd" fill="#B3BED3" d="M3074.25-2166.229c-0.572,4.514-1.08,8.527-1.623,12.804
	c3.768,1.169,7.367,0.323,10.861,0.681c1.562,0.159,3.989-1.051,4.292,1.749c0.283,2.622-0.874,4.377-3.831,4.699
	c-3.066,0.334-6.091,1.273-9.15,1.359c-3.305,0.092-4.357,1.599-4.82,4.626c-1.4,9.164-3.334,18.253-4.552,27.438
	c-1.191,8.995,0.78,10.842,9.847,11.262c1.996,0.093,5.217-1.553,5.795,1.802c0.604,3.495-2.567,3.938-5.104,4.422
	c-2.528,0.48-5.077,1.008-7.637,1.141c-10.197,0.531-15.645-4.997-14.504-15.135c0.777-6.9,2.227-13.726,3.405-20.579
	c0.61-3.554,1.302-7.093,1.929-10.644c0.393-2.23,0.389-4.224-2.752-4.149c-1.631,0.038-3.335-0.168-3.049-2.344
	c0.283-2.144-0.238-5.552,2.908-5.448c4.682,0.152,5.748-2.455,6.074-6.061C3063.059-2166.537,3062.592-2167.476,3074.25-2166.229z"
	/>
<path fill-rule="evenodd" clip-rule="evenodd" fill="#B3BED3" d="M2980.95-2117.086c0.464-5.892,1.781-15.043,5.554-23.622
	c5.6-12.731,21.117-18.551,33.778-12.84c1.251,0.563,2.216,1.258,2.124,2.806c-0.105,1.802-0.979,2.875-2.848,2.909
	c-2.83,0.051-5.666,0.152-8.492,0.051c-6.36-0.229-10.896,2.52-13.6,8.216c-4.041,8.513-5.693,17.643-5.689,26.932
	c0.004,7.542,3.49,10.526,11.084,10.894c2.826,0.137,5.663,0,8.491,0.098c1.179,0.041,2.737-0.286,3.034,1.498
	c0.279,1.679-0.315,3.04-1.956,3.755c-3.361,1.465-7.031,1.861-10.556,2.007C2985.471-2093.702,2980.262-2099.989,2980.95-2117.086z
	"/>
<path fill-rule="evenodd" clip-rule="evenodd" fill="#B3BED3" d="M2931.713-2095.338c-5.066-0.073-5.316-0.197-4.572-4.443
	c4.205-24.028,8.457-48.048,12.769-72.058c0.866-4.82,4.567-6.715,9.398-5.196c2.557,0.804,1.848,2.749,1.577,4.41
	c-0.868,5.32-1.883,10.617-2.811,15.929c-3.229,18.466-6.414,36.94-9.683,55.399
	C2937.34-2095.358,2937.113-2095.26,2931.713-2095.338z"/>
<path fill-rule="evenodd" clip-rule="evenodd" fill="#B2BDD1" d="M2958.539-2095.333c-5.123-0.031-5.332-0.067-4.493-5.114
	c2.69-16.197,5.504-32.375,8.402-48.536c0.327-1.826,0.144-4.519,2.907-4.8c2.512-0.255,5.223-0.802,7.559,0.434
	c1.698,0.898,0.74,2.678,0.482,4.159c-1.982,11.374-3.917,22.756-5.881,34.133c-0.828,4.802-1.666,9.603-2.541,14.396
	C2964.008-2095.362,2963.904-2095.299,2958.539-2095.333z"/>
<path fill-rule="evenodd" clip-rule="evenodd" fill="#B3BED3" d="M3028.629-2095.338c-5.123-0.017-5.344-0.136-4.451-5.235
	c2.785-15.92,5.637-31.828,8.572-47.722c1.072-5.808,1.211-5.782,6.803-5.631c4.549,0.124,4.928,0.434,4.181,4.938
	c-1.553,9.365-3.24,18.709-4.917,28.054c-1.223,6.816-2.467,13.629-3.792,20.426
	C3034.011-2095.309,3033.947-2095.321,3028.629-2095.338z"/>
<path fill-rule="evenodd" clip-rule="evenodd" fill="#B3BED3" d="M3035.213-2162.231c0.206-1.441,0.332-2.423,0.488-3.399
	c1.525-9.525,1.527-9.525,11.684-8.333c0,0.964,0.084,1.959-0.014,2.937C3046.404-2161.281,3046.396-2161.281,3035.213-2162.231z"/>
<path fill-rule="evenodd" clip-rule="evenodd" fill="#B4BED4" d="M2977.012-2174.533c0.795,3.733-0.637,6.36-0.793,9.108
	c-0.176,3.097-1.836,3.972-4.516,3.693c-2.196-0.227-4.705,0.881-6.482-1.19c-0.702-0.816,1.416-10.472,2.318-10.983
	c0.636-0.36,1.432-0.576,2.164-0.601C2971.986-2174.58,2974.273-2174.533,2977.012-2174.533z"/>
<path fill-rule="evenodd" clip-rule="evenodd" fill="#276232" d="M112.517-2454.802c-0.265-2.189,0.853-3.988,1.676-5.865
	c0.854-1.946,1.819-3.838-0.878-5.248c-0.576-0.302-1.365-1.371-1.213-1.717c3.156-7.208-3.053-6.282-6.414-6.956
	c-12.129-2.435-24.34-4.46-36.52-6.64c-0.957-0.171-2.039-0.065-2.822-1.688c2.35-1.312,4.922-0.844,7.349-0.856
	c10.059-0.054,20.118,0.025,30.176-0.041c8.167-0.054,9.851-1.698,8.903-9.451c-0.394-3.225-1.414-5.9,3.026-7.083
	c1.546-0.412,1.374-2.646,0.47-4.065c-1.523-2.389-3.17-4.701-4.826-7.001c-1.605-2.231-3.492-4.3-4.234-7.146
	c2.731-0.855,3.62,1.11,4.766,2.243c6.963,6.896,13.834,13.885,20.742,20.836c1.271,1.279,2.426,2.732,3.88,3.757
	c3.183,2.24,6.213,1.181,6.987-2.632c0.818-4.033,0.554-8.166,0.062-12.769c-3.441,0.403-5.179,3.417-8.065,4.14
	c-3.577,0.897-6.753-0.293-8.281-3.64c-0.598-1.306,0.747-7.885,1.786-8.676c0.192-0.146,0.471-0.341,0.665-0.3
	c7.811,1.618,6.517-4.815,7.304-8.741c2.077-10.358,3.631-20.821,5.458-31.231c0.436-2.477,1.127-4.908,1.768-7.646
	c2.581,1.773,1.8,4.023,1.814,5.903c0.092,11.347,0.039,22.696,0.06,34.044c0.004,2.054-0.195,4.166,0.728,6.089
	c0.603,1.257,1.751,1.853,3.157,1.75c1.571-0.114,2.444-1.169,2.153-2.578c-1-4.859,2.482-6.711,5.533-9.179
	c24.15-19.545,51.129-33.748,80.752-42.959c10.098-3.14,20.344-5.57,31.262-4.231c-4.977,2.69-9.986,5.212-14.94,7.786
	c-26.393,13.719-47.939,32.85-64.787,57.301c-2.185,3.171-4.144,6.548-5.788,10.027c-2.992,6.325-2.393,7.592,4.335,8.92
	c9.101,1.796,18.257,3.317,27.399,4.901c2.701,0.468,5.527,0.451,8.563,2.515c-2.924,1.753-5.518,1.255-7.959,1.268
	c-10.316,0.057-20.635-0.041-30.95,0.055c-7.64,0.07-8.987,1.649-8.428,9.218c0.204,2.752,2.548,5.906-2.59,7.25
	c-2.567,0.672-1.179,3.377-0.114,5.218c2.55,4.407,6.572,7.883,8.558,13.173c-2.53,0.733-3.55-1.016-4.677-2.14
	c-7.665-7.652-15.25-15.385-22.912-23.041c-1.739-1.738-3.152-4.564-6.303-3.386c-3.407,1.275-2.854,4.493-2.987,7.279
	c-0.037,0.771-0.031,1.548,0.005,2.32c0.277,5.862,0.89,6.308,6.362,4.197c2.636-1.017,4.942-2.487,7.812-0.052
	c4.821,4.092,5.288,9.456-0.344,12.224c-6.163,3.028-7.477,7.904-8.439,13.638c-1.537,9.151-3.244,18.273-4.893,27.406
	c-0.176,0.975-0.234,2.041-1.416,2.627c-2.024-1.145-1.191-3.164-1.206-4.779c-0.087-9.8-0.039-19.602-0.048-29.401
	c-0.001-1.806,0.008-3.614-0.098-5.414c-0.146-2.479-0.746-4.928-3.9-4.538c-2.979,0.368-2.377,2.811-2.063,4.857
	c0.157,1.018,0.338,2.04,0.611,3.032c1.352,4.936-0.541,8.388-4.635,11.163c-10.469,7.1-21.271,13.635-32.553,19.344
	c-17.093,8.65-34.854,15.483-53.705,19.271c-4.028,0.81-7.984,0.772-12.92,0.196c2.429-3.146,5.226-3.865,7.619-5.023
	c25.787-12.486,47.031-30.485,64.592-52.985c1.565-2.006,2.713-4.475,5.637-4.919c0.902,3.461,2.08,1.929,3.267,0.179
	c0.499-0.446,1.277-1.147,0.63-1.594c-0.705-0.486-0.94,0.553-1.188,1.126C114.361-2455.042,113.439-2454.922,112.517-2454.802z
	 M70.912-2405.095c1.232-0.099,2.281-0.584,3.127-1.494c3.336-0.284,6.205-1.434,8.099-4.384c1.228-0.354,2.582-0.482,3.661-1.096
	c15.264-8.675,28.713-19.695,41.292-31.87c2.582-2.499,1.892-5.004,1.028-7.741l0.271-0.499l-0.478,0.283
	c-1.66,0.266-2.592,1.491-3.666,2.624c-7.44,7.851-14.846,15.753-23.392,22.444c-6.478,5.07-13.056,10.011-19.585,15.014
	c-2.832,1.124-5.686,2.211-7.609,4.779c-1.17,0.257-2.28,0.623-3.047,1.632c-0.129,0.129-0.272,0.249-0.373,0.397
	c-0.016,0.023,0.225,0.277,0.254,0.261C70.65-2404.832,70.775-2404.973,70.912-2405.095z M180.705-2518.287
	c-0.665,0.896-1.33,1.791-1.995,2.687c-9.749,6.839-17.167,16.134-25.524,24.428c-2.629,2.608-1.162,7.05,2.588,7.736
	c5.563,1.019,11.297,1.44,17.201-0.419c-0.756-0.931-1.005-1.415-1.398-1.695c-8.077-5.739-8.351-9.142-1.854-16.645
	c3.501-4.043,7.521-7.755,9.64-12.857c0.954-0.901,1.34-2.021,1.268-3.313l0.406-0.217L180.705-2518.287z M222.32-2555.686
	c-2.576-0.008-4.674,0.969-6.244,3.03c-9.475,3.771-17.183,10.238-24.818,16.688c-5.63,4.755-12.089,8.812-15.517,15.78
	c-0.729,0.4-2.241,0.704-1.556,1.618c0.611,0.813,1.449-0.448,2-1.122c1.148-0.538,2.325-1.022,3.44-1.622
	c7.778-4.187,12.972-11.437,19.792-16.797c5.787-4.549,12.471-8.028,17.23-13.858c2.402-0.415,4.575-1.231,5.969-3.412
	c0.129-0.128,0.272-0.248,0.373-0.396c0.016-0.021-0.225-0.275-0.253-0.259C222.582-2555.947,222.457-2555.808,222.32-2555.686z
	 M119.342-2459.977c4.451-2.168,16.606-13.285,18.033-16.16c1.336-2.691,0.423-5.655-2.476-6.029
	c-5.608-0.724-11.316-1.039-18.346,0.533c5.214,2.632,7.742,5.567,8.441,10.066C125.766-2466.606,120.345-2465.022,119.342-2459.977
	z M148.892-2482.858c-0.436-2.251-1.626-3.851-4.07-3.743c-2.009,0.089-3.427,1.464-3.579,3.409
	c-0.205,2.651,1.664,3.505,3.994,3.473C147.27-2479.747,148.652-2480.646,148.892-2482.858z M158.656-2475.641
	c2.108,2.538,3.727,4.116,6.256,2.451c0.457-0.302,0.827-1.62,0.564-1.984C163.748-2477.573,161.544-2476.526,158.656-2475.641z
	 M129.908-2490.908c-0.727-1.439-1.922-2.228-3.561-2.004c-1.055,0.143-1.91,1.003-1.809,2.013c0.207,2.075,1.947,1.841,3.389,1.756
	C128.94-2489.203,129.83-2489.622,129.908-2490.908z M136.988-2467.279c-1.141,0.74-2.243,1.675-2.121,3.363
	c0.076,1.065,0.808,1.855,1.88,1.944c1.643,0.136,2.057-1.053,2.004-2.373C138.705-2465.484,138.987-2466.912,136.988-2467.279z
	 M155.285-2501.157c0.025-1.296-0.662-2.079-1.768-2.22c-1.711-0.22-2.201,0.99-2.144,2.396c0.048,1.177-0.186,2.916,1.726,2.635
	C154.433-2498.542,155.014-2499.915,155.285-2501.157z M66.002-2402.739l0.443-0.213l-0.437-0.215L66.002-2402.739z"/>
<path fill-rule="evenodd" clip-rule="evenodd" fill="#133022" d="M179.365-2515.05c-2.123,5.1-6.143,8.812-9.644,12.854
	c-6.496,7.503-6.223,10.905,1.854,16.645c0.394,0.28,0.643,0.765,1.398,1.695c-5.904,1.859-11.639,1.438-17.201,0.419
	c-3.75-0.687-5.217-5.128-2.588-7.736c8.357-8.294,15.775-17.589,25.524-24.428C178.928-2515.416,179.146-2515.232,179.365-2515.05z
	"/>
<path fill-rule="evenodd" clip-rule="evenodd" fill="#133022" d="M128.122-2451.678c0.86,2.735,1.551,5.24-1.031,7.739
	c-12.579,12.175-26.028,23.195-41.292,31.87c-1.079,0.613-2.434,0.742-3.666,1.092c-0.295-0.28-0.582-0.56-0.867-0.841
	c6.533-4.999,13.111-9.939,19.589-15.01c8.546-6.691,15.951-14.594,23.392-22.444c1.074-1.133,2.006-2.358,3.666-2.624
	L128.122-2451.678z"/>
<path fill-rule="evenodd" clip-rule="evenodd" fill="#122F21" d="M119.342-2459.977c1.003-5.046,6.424-6.63,5.653-11.59
	c-0.699-4.499-3.228-7.435-8.441-10.066c7.029-1.572,12.737-1.257,18.346-0.533c2.898,0.374,3.812,3.338,2.476,6.029
	C135.948-2473.262,123.793-2462.145,119.342-2459.977z"/>
<path fill-rule="evenodd" clip-rule="evenodd" fill="#133022" d="M216.656-2551.958c-4.768,5.819-11.451,9.299-17.238,13.848
	c-6.82,5.36-12.014,12.61-19.792,16.797c-1.115,0.6-2.292,1.084-3.44,1.622l-0.453-0.506c3.437-6.959,9.896-11.016,15.525-15.771
	c7.636-6.449,15.344-12.917,24.818-16.688C216.271-2552.425,216.465-2552.192,216.656-2551.958z"/>
<path fill-rule="evenodd" clip-rule="evenodd" fill="#122F21" d="M148.892-2482.858c-0.239,2.213-1.622,3.111-3.655,3.139
	c-2.33,0.032-4.199-0.821-3.994-3.473c0.152-1.945,1.57-3.32,3.579-3.409C147.266-2486.709,148.456-2485.109,148.892-2482.858z"/>
<path fill-rule="evenodd" clip-rule="evenodd" fill="#153624" d="M158.656-2475.641c2.888-0.886,5.092-1.933,6.82,0.467
	c0.263,0.364-0.107,1.683-0.564,1.984C162.383-2471.524,160.765-2473.103,158.656-2475.641z"/>
<path fill-rule="evenodd" clip-rule="evenodd" fill="#153624" d="M129.908-2490.908c-0.078,1.286-0.968,1.705-1.98,1.765
	c-1.441,0.085-3.182,0.319-3.389-1.756c-0.102-1.01,0.754-1.87,1.809-2.013C127.986-2493.136,129.182-2492.348,129.908-2490.908z"/>
<path fill-rule="evenodd" clip-rule="evenodd" fill="#153624" d="M136.988-2467.279c1.999,0.367,1.717,1.795,1.763,2.935
	c0.053,1.32-0.361,2.509-2.004,2.373c-1.072-0.089-1.804-0.879-1.88-1.944C134.745-2465.604,135.848-2466.539,136.988-2467.279z"/>
<path fill-rule="evenodd" clip-rule="evenodd" fill="#153624" d="M155.285-2501.157c-0.271,1.242-0.853,2.615-2.186,2.811
	c-1.911,0.281-1.678-1.458-1.726-2.635c-0.058-1.405,0.433-2.615,2.144-2.396C154.623-2503.236,155.311-2502.453,155.285-2501.157z"
	/>
<path fill-rule="evenodd" clip-rule="evenodd" fill="#133022" d="M73.656-2407.039c1.928-2.563,4.781-3.65,7.611-4.776
	c0.283,0.279,0.57,0.559,0.865,0.839c-1.889,2.954-4.758,4.104-8.098,4.385C74.033-2406.596,73.656-2407.039,73.656-2407.039z"/>
<path fill-rule="evenodd" clip-rule="evenodd" fill="#133022" d="M216.076-2552.655c1.57-2.062,3.668-3.038,6.244-3.03l0.299,0.308
	c-1.396,2.178-3.568,2.994-5.967,3.415C216.465-2552.192,216.271-2552.425,216.076-2552.655z"/>
<path fill-rule="evenodd" clip-rule="evenodd" fill="#122F21" d="M112.517-2454.802c0.923-0.12,1.845-0.24,2.769-0.359l0.56,0.469
	c-1.188,1.749-2.366,3.281-3.269-0.18L112.517-2454.802z"/>
<path fill-rule="evenodd" clip-rule="evenodd" fill="#133022" d="M176.186-2519.691c-0.551,0.674-1.389,1.936-2,1.122
	c-0.686-0.914,0.827-1.218,1.552-1.623C175.732-2520.197,176.186-2519.691,176.186-2519.691z"/>
<path fill-rule="evenodd" clip-rule="evenodd" fill="#122F21" d="M115.285-2455.161c0.247-0.573,0.482-1.612,1.188-1.126
	c0.647,0.446-0.131,1.147-0.63,1.594C115.845-2454.692,115.285-2455.161,115.285-2455.161z"/>
<path fill-rule="evenodd" clip-rule="evenodd" fill="#133022" d="M178.71-2515.601c0.665-0.896,1.33-1.791,1.995-2.687l-0.076-0.08
	c0.072,1.294-0.313,2.413-1.266,3.315C179.146-2515.232,178.928-2515.416,178.71-2515.601z"/>
<polygon fill-rule="evenodd" clip-rule="evenodd" fill="#133022" points="66.002,-2402.739 66.009,-2403.167 66.445,-2402.952 "/>
<path fill-rule="evenodd" clip-rule="evenodd" fill="#133022" d="M70.611-2405.405c0.769-1.006,1.879-1.372,3.047-1.632
	c-0.002-0.002,0.375,0.441,0.377,0.445c-0.842,0.913-1.891,1.398-3.123,1.497L70.611-2405.405z"/>
<path fill-rule="evenodd" clip-rule="evenodd" fill="#133022" d="M222.32-2555.686c0.137-0.122,0.262-0.262,0.417-0.351
	c0.028-0.017,0.269,0.237,0.253,0.259c-0.101,0.148-0.244,0.269-0.372,0.398C222.619-2555.378,222.32-2555.686,222.32-2555.686z"/>
<polygon fill-rule="evenodd" clip-rule="evenodd" fill="#133022" points="127.912,-2451.896 128.39,-2452.179 128.121,-2451.679 "/>
<polygon fill-rule="evenodd" clip-rule="evenodd" fill="#133022" points="180.705,-2518.287 181.035,-2518.583 180.629,-2518.366 
	"/>
<path fill-rule="evenodd" clip-rule="evenodd" fill="#133022" d="M70.912-2405.095c-0.137,0.122-0.262,0.263-0.418,0.351
	c-0.029,0.017-0.27-0.237-0.254-0.261c0.101-0.148,0.244-0.269,0.372-0.398C70.611-2405.405,70.912-2405.095,70.912-2405.095z"/>
<path fill-rule="evenodd" clip-rule="evenodd" fill="#112C1F" d="M-214.71-2093.296c0-46.715,0-93.43,0-140.144
	c58.72,0,117.439,0,176.159,0c-0.188,0.074-0.372,0.184-0.567,0.216c-4.535,0.762-9.135,1.251-13.598,2.319
	c-13.347,3.194-25.749,8.839-37.898,15.09c-11.468,5.901-21.576,13.804-31.824,21.504c-0.928,0.697-1.116,1.579-0.858,2.654
	c0.381,1.594,0.722,3.196,1.128,5.01c-2.422-0.236-4.639-0.453-6.975-0.682c0-12.423,0-24.699,0-36.975
	c-0.258,0.227-0.395,0.457-0.438,0.704c-1.765,10.097-3.522,20.195-5.277,30.293c-0.282,1.626-0.524,3.26-0.833,4.88
	c-0.244,1.281-1.03,2.066-2.333,2.316c-1.224,0.235-1.482-0.815-2.012-1.498c-0.159-0.205-0.221-0.554-0.417-0.644
	c-0.342-0.157-0.827-0.319-1.108-0.184c-0.205,0.1-0.308,0.709-0.227,1.032c0.136,0.536,0.422,1.047,0.71,1.529
	c0.373,0.622,0.234,1-0.378,1.369c-0.804,0.485-1.552,1.062-2.629,1.812c1.438,1.36,2.736,2.564,4.006,3.796
	c0.724,0.703,1.485,0.779,2.375,0.348c0.897-0.435,1.792-0.953,2.748-1.172c1.425-0.328,2.201-1.181,2.832-2.426
	c0.808-1.591,1.798-3.09,2.883-4.921c0,3.426-0.011,6.424,0.004,9.422c0.01,2.216,0.069,4.433,0.076,6.649
	c0.003,0.994-0.105,1.999-1.391,2.135c-1.381,0.146-2.388,0.726-2.776,2.279c-9.08-9.331-18.057-18.556-27.034-27.782
	c-0.089,0.063-0.178,0.126-0.267,0.189c0.274,0.455,0.52,0.929,0.827,1.36c2.849,4.001,5.733,7.978,8.56,11.994
	c2.259,3.21,2.488,2.55-0.145,6.229c-0.043,0.06-0.149,0.075-0.284,0.137c-0.902-0.411-1.841-0.838-2.778-1.266
	c-0.645,0.844-0.775,1.512,0.331,1.972c1.396,0.582,1.769,1.678,1.508,3.085c-0.111,0.597-0.202,1.199-0.283,1.802
	c-0.264,1.964-0.519,3.929-0.785,5.949c-11.991,0-23.835,0-35.68,0c11.204,2.081,22.413,4.022,33.617,5.987
	c1.366,0.24,2.566,0.792,3.186,2.191c0.684,1.546,0.651,1.693-0.854,2.497c-0.268,0.143-0.641,0.219-0.781,0.441
	c-0.214,0.338-0.267,0.778-0.388,1.175c0.367,0.092,0.745,0.289,1.096,0.247c0.366-0.044,0.689-0.37,1.058-0.479
	c0.456-0.134,1.266-0.362,1.353-0.215c0.323,0.549,0.615,1.263,0.533,1.862c-0.094,0.692-0.563,1.346-0.924,1.986
	c-5.422,9.588-12.61,17.762-20.391,25.463C-184.273-2109.46-198.758-2100.273-214.71-2093.296z"/>
<path fill-rule="evenodd" clip-rule="evenodd" fill="#276232" d="M2288.954-2084.514c15.953-6.977,30.438-16.164,42.859-28.46
	c7.78-7.701,14.968-15.875,20.391-25.463c0.361-0.64,0.829-1.294,0.924-1.986c0.082-0.599-0.211-1.313-0.533-1.862
	c-0.087-0.147-0.897,0.082-1.354,0.215c-0.369,0.109-0.691,0.434-1.058,0.479c-0.351,0.042-0.729-0.155-1.096-0.247
	c0.12-0.397,0.174-0.837,0.388-1.175c0.141-0.223,0.514-0.298,0.781-0.441c1.506-0.804,1.537-0.951,0.854-2.497
	c-0.619-1.399-1.819-1.951-3.186-2.191c-11.203-1.965-22.412-3.906-33.616-5.987c11.845,0,23.688,0,35.68,0
	c0.266-2.02,0.521-3.985,0.784-5.949c0.082-0.603,0.172-1.205,0.283-1.802c0.262-1.407-0.111-2.503-1.508-3.085
	c-1.105-0.46-0.976-1.127-0.33-1.972c0.938,0.428,1.876,0.855,2.777,1.266c0.135-0.063,0.241-0.077,0.284-0.137
	c2.633-3.679,2.403-3.019,0.145-6.229c-2.826-4.017-5.71-7.993-8.56-11.994c-0.307-0.431-0.553-0.905-0.826-1.36
	c0.088-0.063,0.178-0.126,0.267-0.189c8.978,9.226,17.954,18.451,27.034,27.782c0.388-1.553,1.395-2.132,2.775-2.279
	c1.285-0.136,1.395-1.141,1.391-2.135c-0.008-2.217-0.066-4.433-0.076-6.649c-0.016-2.998-0.004-5.996-0.004-9.422
	c-1.084,1.831-2.074,3.33-2.883,4.921c-0.631,1.245-1.406,2.098-2.832,2.426c-0.956,0.219-1.85,0.737-2.748,1.172
	c-0.89,0.432-1.65,0.355-2.375-0.348c-1.27-1.232-2.567-2.437-4.006-3.796c1.078-0.75,1.826-1.327,2.629-1.812
	c0.613-0.369,0.752-0.747,0.379-1.369c-0.289-0.481-0.574-0.993-0.711-1.529c-0.081-0.323,0.021-0.933,0.227-1.032
	c0.282-0.136,0.768,0.027,1.109,0.184c0.195,0.09,0.258,0.439,0.416,0.644c0.529,0.682,0.787,1.732,2.012,1.498
	c1.303-0.25,2.088-1.036,2.332-2.316c0.309-1.621,0.551-3.254,0.833-4.88c1.755-10.099,3.513-20.196,5.277-30.293
	c0.042-0.247,0.18-0.477,0.438-0.704c0,12.276,0,24.552,0,36.975c2.336,0.229,4.554,0.445,6.976,0.682
	c-0.406-1.813-0.748-3.416-1.129-5.01c-0.258-1.075-0.069-1.957,0.858-2.654c10.248-7.7,20.356-15.604,31.823-21.504
	c12.15-6.251,24.552-11.896,37.898-15.09c4.463-1.068,9.063-1.558,13.598-2.319c0.195-0.033,0.379-0.142,0.567-0.216
	c2.001,0,4.001,0,6.003,0c-3.488,0.871-6.996,1.67-10.462,2.624c-21.825,6.006-41.054,16.652-57.329,32.441
	c-3.799,3.686-7.257,7.725-10.869,11.604c-0.168,0.18-0.303,0.39-0.315,0.738c4.163-2.955,8.325-5.91,12.487-8.865
	c0.123,0.138,0.244,0.276,0.367,0.414c-8.97,9.14-17.938,18.28-27.025,27.541c1.359,0.183,1.893,0.949,2.115,2.097
	c0.301,1.542,0.717,1.754,2.367,1.739c5.087-0.046,10.174-0.059,15.261-0.081c0.21,0,0.42,0.041,0.847,0.083
	c-0.113,1.626-0.208,3.208-0.34,4.789c-0.111,1.342-0.211,2.689-0.416,4.018c-0.155,1.003,0.098,1.647,1.084,2.021
	c0.516,0.196,0.971,0.553,1.518,0.875c-0.463,1.084-1.171,1.159-2.098,0.749c-0.688-0.305-1.333-1.103-2.146-0.078
	c-1.608,2.029-1.779,2.522-0.824,3.867c3.172,4.463,6.376,8.905,9.558,13.362c0.383,0.536,0.712,1.109,1.088,1.7
	c-2.491-2.372-4.975-4.611-7.316-6.989c-6.313-6.413-12.571-12.88-18.832-19.344c-0.525-0.542-0.928-0.559-1.668-0.353
	c-2.886,0.803-3.928,2.419-3.656,5.525c0.354,4.057,0.084,8.168,0.09,12.256c0,0.458,0.041,0.917,0.063,1.375
	c0.123,0.04,0.246,0.08,0.368,0.12c0.653-1.267,1.427-2.488,1.931-3.812c0.625-1.648,1.64-2.681,3.363-3.113
	c0.832-0.208,1.66-0.563,2.391-1.012c1.113-0.683,1.903-0.535,2.779,0.451c1.295,1.458,2.738,2.784,4.123,4.17
	c-0.477,1.81-4.264,2.026-2.053,5.105c-0.578,0-0.936,0.103-1.184-0.018c-1.323-0.641-2.238,0.01-3.271,0.769
	c-2.561,1.882-3.407,4.507-3.894,7.501c-1.373,8.431-2.922,16.833-4.652,25.225c0-11.349,0-22.698,0-34.231
	c-2.363-0.373-4.639-0.731-7.154-1.128c0.707,3.518,1.342,6.828,2.045,10.123c0.572,2.67,0.607,2.66-1.676,4.269
	c-15.165,10.683-31.272,19.577-48.816,25.746c-7.43,2.613-15.016,4.623-22.798,5.875c-0.237,0.038-0.458,0.17-0.687,0.259
	c-0.783,0-1.566,0-2.35,0c0.428-0.172,0.847-0.372,1.285-0.512c4.21-1.354,8.484-2.539,12.628-4.074
	c18.636-6.904,34.923-17.582,49.39-31.112c3.551-3.32,6.978-6.769,10.494-10.191c-1.6-1.225-1.848-1.173-2.602,0.266
	c-0.161,0.308-0.271,0.669-0.507,0.904c-0.308,0.308-0.716,0.515-1.081,0.766c-0.203-0.498-0.583-1.003-0.563-1.492
	c0.025-0.623,0.415-1.225,0.562-1.855c0.054-0.233-0.061-0.623-0.238-0.76c-0.189-0.148-0.602-0.195-0.814-0.086
	c-0.332,0.169-0.593,0.494-0.857,0.776c-4.265,4.517-8.342,9.229-12.818,13.522c-13.37,12.82-28.563,22.928-45.824,29.776
	c-3.899,1.546-7.945,2.725-11.923,4.073C2289.825-2084.34,2289.39-2084.427,2288.954-2084.514z M2350.569-2154.151
	c-0.018,0.09-0.037,0.179-0.057,0.269c0.693,0.342,1.382,0.693,2.08,1.024c4.677,2.217,4.618,2.24,6.494,6.988
	c0.569,1.438,0.414,2.324-0.668,3.488c-4.818,5.188-9.439,10.551-13.202,16.586c-0.466,0.746-0.815,1.563-1.22,2.348
	c0.355-0.023,0.527-0.147,0.674-0.297c7.656-7.877,15.303-15.766,22.974-23.63c2.604-2.669,2.655-2.656,0.879-5.949
	c-0.226-0.419-0.866-0.87-1.319-0.875c-5.299-0.06-10.6-0.04-15.899-0.035C2351.06-2154.234,2350.815-2154.18,2350.569-2154.151z
	 M2374.448-2150.846c1.884,0.009,3.49-1.588,3.499-3.478c0.009-1.923-1.557-3.557-3.412-3.563c-1.907-0.006-3.665,1.71-3.629,3.546
	C2370.942-2152.496,2372.606-2150.855,2374.448-2150.846z M2389.513-2144.498c0.771-2.034,1.458-3.843,2.233-5.887
	c-2.933,0.42-5.642,0.809-8.69,1.246C2385.338-2147.498,2387.354-2146.05,2389.513-2144.498z M2365.046-2138.873
	c1.889,0.783,3.656,1.515,5.623,2.33c-0.451-2.834-0.86-5.396-1.324-8.31C2367.778-2142.673,2366.446-2140.821,2365.046-2138.873z
	 M2383.917-2169.39c-1.904-0.8-3.62-1.52-5.533-2.323c0.424,2.814,0.809,5.383,1.24,8.263
	C2381.146-2165.557,2382.462-2167.376,2383.917-2169.39z M2365.624-2159.466c-2.18-1.563-4.061-2.91-6.047-4.334
	c-0.737,1.881-1.402,3.579-2.142,5.464C2360.216-2158.72,2362.739-2159.069,2365.624-2159.466z M2365.132-2175.999
	c-0.627,0.844-1.477,1.493-1.424,2.058c0.051,0.546,1.09,1.46,1.586,1.395c0.674-0.09,1.244-0.959,1.857-1.494
	C2366.562-2174.613,2365.971-2175.186,2365.132-2175.999z M2367.565-2134.474c-0.902-0.645-1.529-1.439-2.126-1.416
	c-0.522,0.02-1.493,1.06-1.407,1.465c0.152,0.713,0.961,1.287,1.494,1.919C2366.11-2133.069,2366.692-2133.631,2367.565-2134.474z
	 M2354.251-2161.921c0.246,0.002,0.491,0.005,0.737,0.007c0.396-0.736,1.073-1.464,1.092-2.209c0.013-0.502-0.901-1.029-1.401-1.544
	c-0.495,0.499-1.387,0.993-1.393,1.498C2353.278-2163.424,2353.897-2162.671,2354.251-2161.921z M2383.569-2137.005
	c-2.061,2.262-2.057,2.506,0.021,3.888C2385.657-2134.533,2385.661-2134.852,2383.569-2137.005z M2353.464-2145.574
	c-0.015,0.237-0.029,0.475-0.044,0.712c0.722,0.394,1.422,1.027,2.172,1.092c0.464,0.04,1.003-0.784,1.509-1.22
	c-0.498-0.557-0.957-1.514-1.506-1.568C2354.924-2146.625,2354.178-2145.936,2353.464-2145.574z M2393.67-2143.678
	c0.208-0.003,0.417-0.006,0.626-0.009c0.418-0.684,1.127-1.355,1.158-2.057c0.022-0.516-0.84-1.071-1.309-1.61
	c-0.536,0.516-1.473,1.006-1.508,1.555C2392.592-2145.117,2393.292-2144.387,2393.67-2143.678z M2382.915-2172.028
	c0.234,0.009,0.467,0.017,0.7,0.025c0.436-0.667,1.206-1.336,1.204-2.001c-0.002-0.564-0.898-1.125-1.399-1.688
	c-0.508,0.48-1.412,0.947-1.43,1.444C2381.966-2173.52,2382.575-2172.769,2382.915-2172.028z"/>
<path fill-rule="evenodd" clip-rule="evenodd" fill="#112C1F" d="M2290.26-2084.253c3.978-1.348,8.023-2.526,11.923-4.073
	c17.262-6.848,32.454-16.956,45.824-29.776c4.477-4.294,8.554-9.005,12.818-13.522c0.265-0.282,0.525-0.607,0.857-0.776
	c0.213-0.109,0.625-0.062,0.814,0.086c0.178,0.138,0.292,0.527,0.238,0.76c-0.146,0.63-0.536,1.232-0.562,1.855
	c-0.02,0.489,0.36,0.994,0.563,1.492c0.365-0.251,0.773-0.458,1.081-0.766c0.235-0.235,0.346-0.597,0.507-0.904
	c0.754-1.439,1.002-1.491,2.602-0.266c-3.517,3.422-6.943,6.871-10.494,10.191c-14.467,13.53-30.754,24.208-49.39,31.112
	c-4.144,1.535-8.418,2.72-12.628,4.074c-0.438,0.141-0.857,0.34-1.285,0.512C2292.174-2084.253,2291.216-2084.253,2290.26-2084.253z
	"/>
<path fill-rule="evenodd" clip-rule="evenodd" fill="#276232" d="M2462.595-2221.551c-4.996,2.882-10.097,5.596-14.967,8.675
	c-16.904,10.689-30.68,24.555-41.275,41.518c-1.805,2.889-3.082,6.112-4.545,9.209c-0.551,1.164-0.199,1.706,1.186,1.966
	c5.121,0.963,10.241,1.922,15.371,2.838c5.496,0.982,11.002,1.915,16.863,2.932c-0.906,0-1.465,0-2.023,0
	c-10.608,0-21.217,0.034-31.824-0.042c-1.373-0.01-2.75-0.57-4.111-0.925c-0.411-0.107-0.778-0.38-1.166-0.573
	c-4.811-2.404-4.785-2.414-6.557-7.504c-0.289-0.827,0.129-1.195,0.547-1.686c3.434-4.036,6.969-7.99,10.246-12.148
	c1.76-2.234,3.17-4.765,4.559-7.261c1.635-2.939,3.82-5.357,6.336-7.535c8.627-7.466,17.642-14.39,27.676-19.893
	c7.102-3.895,14.564-6.942,22.265-9.422c0.459-0.147,0.946-0.204,1.421-0.302
	C2462.595-2221.653,2462.595-2221.602,2462.595-2221.551z M2392.308-2163.749c-0.02,0.19-0.039,0.381-0.061,0.572
	c0.674,0.495,1.309,1.292,2.033,1.381c0.501,0.064,1.125-0.846,1.693-1.322c-0.465-0.53-0.904-1.463-1.402-1.497
	C2393.839-2164.663,2393.064-2164.068,2392.308-2163.749z"/>
<path fill-rule="evenodd" clip-rule="evenodd" fill="#112C1F" d="M2350.569-2154.151c0.246-0.029,0.49-0.083,0.735-0.083
	c5.3-0.005,10.601-0.025,15.899,0.035c0.453,0.005,1.094,0.455,1.319,0.875c1.776,3.293,1.725,3.28-0.879,5.949
	c-7.671,7.864-15.317,15.753-22.974,23.63c-0.146,0.15-0.318,0.274-0.674,0.297c0.404-0.784,0.754-1.602,1.22-2.348
	c3.763-6.035,8.384-11.398,13.202-16.586c1.082-1.164,1.237-2.05,0.668-3.488c-1.876-4.748-1.817-4.771-6.494-6.988
	c-0.698-0.331-1.387-0.682-2.08-1.024C2350.532-2153.972,2350.552-2154.061,2350.569-2154.151z"/>
<path fill-rule="evenodd" clip-rule="evenodd" fill="#112C1F" d="M2389.513-2144.498c-2.159-1.552-4.175-3-6.457-4.641
	c3.049-0.437,5.758-0.825,8.69-1.246C2390.971-2148.34,2390.284-2146.531,2389.513-2144.498z"/>
<path fill-rule="evenodd" clip-rule="evenodd" fill="#112C1F" d="M2365.046-2138.873c1.4-1.949,2.732-3.8,4.299-5.98
	c0.464,2.914,0.873,5.476,1.324,8.31C2368.702-2137.357,2366.935-2138.09,2365.046-2138.873z"/>
<path fill-rule="evenodd" clip-rule="evenodd" fill="#112C1F" d="M2383.917-2169.39c-1.455,2.014-2.771,3.833-4.293,5.939
	c-0.432-2.88-0.816-5.448-1.24-8.263C2380.297-2170.91,2382.013-2170.19,2383.917-2169.39z"/>
<path fill-rule="evenodd" clip-rule="evenodd" fill="#112C1F" d="M2365.624-2159.466c-2.885,0.397-5.408,0.746-8.188,1.13
	c0.739-1.885,1.404-3.583,2.142-5.464C2361.563-2162.376,2363.444-2161.029,2365.624-2159.466z"/>
<path fill-rule="evenodd" clip-rule="evenodd" fill="#112C1F" d="M2365.132-2175.999c0.839,0.813,1.43,1.386,2.02,1.959
	c-0.613,0.535-1.184,1.403-1.857,1.494c-0.496,0.066-1.535-0.848-1.586-1.395
	C2363.655-2174.506,2364.505-2175.155,2365.132-2175.999z"/>
<path fill-rule="evenodd" clip-rule="evenodd" fill="#112C1F" d="M2367.565-2134.474c-0.873,0.842-1.455,1.405-2.039,1.968
	c-0.533-0.632-1.342-1.206-1.494-1.919c-0.086-0.406,0.885-1.445,1.407-1.465
	C2366.036-2135.913,2366.663-2135.119,2367.565-2134.474z"/>
<path fill-rule="evenodd" clip-rule="evenodd" fill="#112C1F" d="M2354.251-2161.921c-0.354-0.75-0.973-1.503-0.965-2.249
	c0.006-0.504,0.897-0.999,1.393-1.498c0.5,0.516,1.414,1.042,1.401,1.544c-0.019,0.746-0.696,1.474-1.092,2.209
	C2354.742-2161.917,2354.497-2161.919,2354.251-2161.921z"/>
<path fill-rule="evenodd" clip-rule="evenodd" fill="#112C1F" d="M2383.569-2137.005c2.092,2.153,2.088,2.472,0.021,3.888
	C2381.513-2134.499,2381.509-2134.743,2383.569-2137.005z"/>
<path fill-rule="evenodd" clip-rule="evenodd" fill="#112C1F" d="M2353.464-2145.574c0.714-0.362,1.46-1.052,2.131-0.984
	c0.549,0.055,1.008,1.011,1.506,1.568c-0.506,0.436-1.045,1.259-1.509,1.22c-0.75-0.065-1.45-0.699-2.172-1.092
	C2353.435-2145.099,2353.449-2145.336,2353.464-2145.574z"/>
<path fill-rule="evenodd" clip-rule="evenodd" fill="#112C1F" d="M2393.67-2143.678c-0.378-0.709-1.078-1.439-1.032-2.12
	c0.035-0.549,0.972-1.039,1.508-1.555c0.469,0.539,1.331,1.094,1.309,1.61c-0.031,0.702-0.74,1.373-1.158,2.057
	C2394.087-2143.684,2393.878-2143.681,2393.67-2143.678z"/>
<path fill-rule="evenodd" clip-rule="evenodd" fill="#112C1F" d="M2382.915-2172.028c-0.34-0.741-0.949-1.491-0.925-2.219
	c0.018-0.498,0.922-0.964,1.43-1.444c0.501,0.562,1.397,1.123,1.399,1.688c0.002,0.665-0.769,1.334-1.204,2.001
	C2383.382-2172.011,2383.149-2172.02,2382.915-2172.028z"/>
<path fill-rule="evenodd" clip-rule="evenodd" fill="#112C1F" d="M2392.308-2163.749c0.757-0.32,1.531-0.915,2.264-0.865
	c0.498,0.034,0.938,0.967,1.402,1.497c-0.568,0.476-1.192,1.386-1.693,1.322c-0.725-0.09-1.359-0.887-2.033-1.381
	C2392.269-2163.368,2392.288-2163.558,2392.308-2163.749z"/>
</svg>
