<?xml version="1.0" encoding="utf-8"?>
<!-- Generator: Adobe Illustrator 16.0.2, SVG Export Plug-In . SVG Version: 6.00 Build 0)  -->
<!DOCTYPE svg PUBLIC "-//W3C//DTD SVG 1.1//EN" "http://www.w3.org/Graphics/SVG/1.1/DTD/svg11.dtd">
<svg version="1.1" id="Layer_1" xmlns="http://www.w3.org/2000/svg" xmlns:xlink="http://www.w3.org/1999/xlink" x="0px" y="0px"
	 width="1920.055px" height="329.895px" viewBox="0 0 1920.055 329.895" enable-background="new 0 0 1920.055 329.895"
	 xml:space="preserve">
<path fill-rule="evenodd" clip-rule="evenodd" fill="#286633" d="M-1.944,2629.481c0-323.098,0-646.195,0-969.291
	c5.342-0.611,10.103,1.734,15.079,2.973c39.551,9.845,79.534,17.441,119.819,23.611c25.203,3.859,50.461,7.351,75.779,10.185
	c24.027,2.689,48.09,5.239,72.246,6.814c7.954,0.519,15.972,0.692,23.871,1.634c20.217,2.41,40.583,2.283,60.835,4.116
	c11.77,1.064,23.647,0.662,35.497,1.393c20.293,1.251,40.7,1.258,61.028,1.512c36.328,0.455,72.696,1.613,109.046-0.953
	c19.511-1.377,39.12-0.037,58.728-1.396c17.44-1.208,34.93-1.963,52.393-3.221c17.729-1.277,35.375-3.295,53.01-5.278
	c20.203-2.272,40.28-5.699,60.386-8.789c44.351-6.816,88.255-15.959,132.123-25.327c9.459-2.02,18.655-6.069,28.703-4.844
	c0.576,0.07,1.385-0.556,1.86-1.068c2.645-2.845,6.277-3.517,9.757-4.306c16.596-3.763,33.185-7.566,49.845-11.024
	c34.824-7.226,69.752-13.89,104.864-19.617c32.035-5.227,64.226-9.216,96.478-12.667c20.201-2.162,40.502-3.584,60.793-4.652
	c16.196-0.852,32.48-1.387,48.648-1.404c59.31-0.062,118.63-1.82,177.947,0.936c23.655,1.099,47.326,1.814,70.986,3.085
	c22.623,1.215,45.184,3.018,67.768,4.686c21.314,1.574,42.512,4.125,63.769,6.156c25.652,2.452,51.14,6.145,76.581,10.016
	c41.291,6.284,82.352,13.923,122.768,24.655c3.021,0.802,6.026,1.396,9.158,1.188c0.078,3.864,0.226,7.728,0.226,11.592
	c0.011,316.178,0.009,632.357,0.024,948.535c0,3.604,0.215,7.207,0.329,10.811l-0.601-0.113c-1.754,0.404-3.576,0.623-5.249,1.242
	c-14.724,5.447-29.435,10.912-44.515,15.342c-12.601,3.701-25.065,7.873-37.687,11.498c-26.754,7.686-53.871,13.861-81.159,19.34
	c-17.416,3.498-34.618,8.219-52.139,10.984c-21.359,3.373-42.514,7.871-63.921,10.934c-17.838,2.553-35.612,5.551-53.456,8.055
	c-18.609,2.611-37.263,4.916-55.908,7.264c-14.302,1.803-28.612,3.535-42.935,5.164c-12.019,1.367-24.057,2.572-36.093,3.783
	c-13.569,1.365-27.137,2.789-40.725,3.945c-15.129,1.289-30.336,1.84-45.41,3.568c-17.151,1.969-34.382,2.74-51.567,3.984
	c-11.534,0.838-23.117,1.598-34.694,2.131c-18.249,0.844-36.454,2.703-54.752,2.793c-1.289,0.006-2.598-0.004-3.861,0.211
	c-15.059,2.561-30.341,0.82-45.49,2.557c-12.24,1.404-24.668,0.572-37.043,1.42c-18.732,1.285-37.58,0.391-56.383,1.699
	c-13.61,0.947-27.338,0.404-41.009,0.244c-70.136-0.828-140.276,1.32-210.423-1.217c-25.215-0.912-50.479-1.758-75.729-2.281
	c-11.003-0.229-22.13-0.58-33.159-1.613c-16.147-1.514-32.38-1.08-48.562-2.383c-11.778-0.945-23.672-1.367-35.458-2.219
	c-17.958-1.301-35.948-2.305-53.9-3.875c-20.243-1.771-40.558-2.879-60.775-5.039c-6.664-0.711-13.332-1.141-19.995-1.693
	c-6.919-0.574-13.86-1.086-20.769-1.82c-11.517-1.225-22.974-3.17-34.514-3.961c-15.951-1.092-31.715-3.666-47.558-5.506
	c-20.185-2.342-40.324-5.361-60.469-8.074c-23.482-3.162-46.914-6.629-70.255-10.568c-34.766-5.867-69.257-13.227-103.788-20.383
	c-27.037-5.602-53.667-12.693-80.244-19.936c-22.579-6.152-44.959-13.193-66.87-21.594C7.076,2631.79,2.816,2629.646-1.944,2629.481
	z"/>
<path fill-rule="evenodd" clip-rule="evenodd" fill="#144B20" d="M-1.944,2629.481c4.76,0.164,9.02,2.309,13.278,3.941
	c21.911,8.4,44.291,15.441,66.87,21.594c26.577,7.242,53.207,14.334,80.244,19.936c34.531,7.156,69.022,14.516,103.788,20.383
	c23.341,3.939,46.772,7.406,70.255,10.568c20.145,2.713,40.285,5.732,60.469,8.074c15.843,1.84,31.607,4.414,47.558,5.506
	c11.541,0.791,22.998,2.736,34.514,3.961c6.909,0.734,13.85,1.246,20.769,1.82c6.664,0.553,13.332,0.982,19.995,1.693
	c20.217,2.16,40.532,3.268,60.775,5.039c17.952,1.57,35.942,2.574,53.9,3.875c11.786,0.852,23.68,1.273,35.458,2.219
	c16.182,1.303,32.415,0.869,48.562,2.383c11.028,1.033,22.155,1.385,33.159,1.613c25.25,0.523,50.515,1.369,75.729,2.281
	c70.147,2.537,140.288,0.389,210.423,1.217c13.671,0.16,27.398,0.703,41.009-0.244c18.803-1.309,37.65-0.414,56.383-1.699
	c12.375-0.848,24.803-0.016,37.043-1.42c15.149-1.736,30.432,0.004,45.49-2.557c1.264-0.215,2.572-0.205,3.861-0.211
	c18.298-0.09,36.503-1.949,54.752-2.793c11.577-0.533,23.16-1.293,34.694-2.131c17.186-1.244,34.416-2.016,51.567-3.984
	c15.074-1.729,30.281-2.279,45.41-3.568c13.588-1.156,27.155-2.58,40.725-3.945c12.036-1.211,24.074-2.416,36.093-3.783
	c14.322-1.629,28.633-3.361,42.935-5.164c18.646-2.348,37.299-4.652,55.908-7.264c17.844-2.504,35.618-5.502,53.456-8.055
	c21.407-3.063,42.562-7.561,63.921-10.934c17.521-2.766,34.723-7.486,52.139-10.984c27.288-5.479,54.405-11.654,81.159-19.34
	c12.621-3.625,25.086-7.797,37.687-11.498c15.08-4.43,29.791-9.895,44.515-15.342c1.673-0.619,3.495-0.838,5.249-1.242
	c0.086,3.863,0.247,7.727,0.247,11.59c0.011,352.801,0.011,705.6,0.011,1058.398c-640.001,0-1280,0-1920,0
	C-1.944,3342.771-1.944,2986.126-1.944,2629.481z"/>
<path fill-rule="evenodd" clip-rule="evenodd" fill="#154B21" d="M-1240.67,573.346c-2.74,0-5.02-0.04-7.31,0.03
	c-0.73,0.02-1.52,0.24-2.16,0.6c-0.9,0.51-3.02,10.17-2.32,10.98c1.78,2.08,4.29,0.97,6.48,1.19c2.68,0.28,4.34-0.59,4.52-3.69
	C-1241.3,579.706-1239.87,577.085-1240.67,573.346z M-1170.29,573.916c-10.16-1.19-10.16-1.19-11.69,8.33
	c-0.15,0.98-0.28,1.96-0.49,3.4c11.19,0.95,11.19,0.95,12.16-8.79C-1170.21,575.875-1170.29,574.886-1170.29,573.916z
	 M-1178.13,593.956c-5.59-0.15-5.73-0.18-6.8,5.63c-2.93,15.89-5.79,31.8-8.57,47.72c-0.89,5.1-0.67,5.22,4.45,5.24
	c5.32,0.01,5.38,0.03,6.4-5.17c1.32-6.8,2.57-13.61,3.79-20.43c1.67-9.34,3.36-18.69,4.91-28.05
	C-1173.2,594.386-1173.58,594.076-1178.13,593.956z M-1244.77,594.536c-2.33-1.24-5.04-0.69-7.55-0.44
	c-2.77,0.28-2.58,2.98-2.91,4.8c-2.9,16.16-5.71,32.34-8.4,48.54c-0.84,5.05-0.63,5.08,4.49,5.11c5.37,0.04,5.47-0.03,6.44-5.33
	c0.87-4.79,1.71-9.59,2.54-14.39c1.96-11.38,3.9-22.76,5.88-34.13C-1244.02,597.206-1243.07,595.426-1244.77,594.536z
	 M-1268.37,570.846c-4.83-1.52-8.53,0.38-9.4,5.2c-4.31,24.01-8.56,48.03-12.77,72.05c-0.74,4.25-0.49,4.37,4.57,4.45
	c5.4,0.08,5.63-0.02,6.68-5.96c3.27-18.46,6.46-36.93,9.68-55.4c0.93-5.31,1.95-10.61,2.82-15.93
	C-1266.52,573.596-1265.81,571.646-1268.37,570.846z M-1197.4,594.335c-12.66-5.71-28.18,0.11-33.77,12.84
	c-3.78,8.58-5.09,17.73-5.56,23.62c-0.69,17.1,4.52,23.38,20.93,22.7c3.52-0.14,7.19-0.54,10.55-2c1.64-0.72,2.24-2.08,1.96-3.76
	c-0.3-1.78-1.86-1.46-3.04-1.5c-2.82-0.1-5.66,0.04-8.49-0.1c-7.59-0.36-11.08-3.35-11.08-10.89c-0.01-9.29,1.65-18.42,5.69-26.93
	c2.7-5.7,7.24-8.45,13.6-8.22c2.82,0.11,5.66,0,8.49-0.05c1.87-0.03,2.74-1.1,2.85-2.91
	C-1195.18,595.596-1196.15,594.896-1197.4,594.335z M-1129.9,596.886c-0.3-2.8-2.73-1.59-4.29-1.75c-3.5-0.36-7.09,0.49-10.86-0.68
	c0.54-4.28,1.05-8.29,1.62-12.8c-11.66-1.25-11.19-0.31-11.91,7.62c-0.33,3.6-1.39,6.21-6.07,6.06c-3.15-0.1-2.63,3.3-2.91,5.45
	c-0.29,2.17,1.42,2.38,3.05,2.34c3.14-0.07,3.14,1.92,2.75,4.15c-0.63,3.55-1.32,7.09-1.93,10.64c-1.18,6.86-2.63,13.68-3.4,20.58
	c-1.15,10.14,4.3,15.67,14.5,15.14c2.56-0.13,5.11-0.66,7.64-1.14c2.53-0.49,5.7-0.93,5.1-4.42c-0.58-3.36-3.8-1.71-5.8-1.81
	c-9.06-0.42-11.03-2.26-9.84-11.26c1.21-9.18,3.15-18.27,4.55-27.44c0.46-3.02,1.52-4.53,4.82-4.62c3.06-0.09,6.08-1.03,9.15-1.36
	C-1130.77,601.266-1129.62,599.505-1129.9,596.886z M-1545.07,596.826c-0.24-2.32-2.22-1.59-3.6-1.7
	c-3.75-0.28-7.59,0.48-11.44-0.59c-0.14-4.47,1.75-8.4,0.98-13.01c-9.58-0.61-9.65-0.63-11.3,7.88c-0.69,3.58-1.69,6.12-6.24,5.92
	c-2.72-0.12-2.37,2.86-2.7,4.81c-0.23,1.38,0.07,2.87,1.68,2.83c5.01-0.14,4.43,2.65,3.6,6.03c-0.8,3.24-1.33,6.57-1.75,9.89
	c-0.94,7.4-3.21,14.64-3.16,22.16c0.06,7.86,3.19,11.24,10.89,12.43c4.46,0.69,8.7-0.67,12.99-1.4c2.21-0.38,3.99-1.73,3.42-4.26
	c-0.56-2.48-2.88-1.37-4.49-1.59c-1.01-0.14-2.06,0-3.09-0.04c-6.89-0.27-9.38-2.82-8.41-9.74c1.36-9.69,3.34-19.29,4.85-28.96
	c0.48-3.05,1.69-4.42,4.91-4.57c3.32-0.14,6.6-0.99,9.9-1.51C-1545.31,600.976-1544.85,599.025-1545.07,596.826z M-1645.83,602.306
	c-1.3-3.58-3.53-6.22-6.99-7.84c-8.69-4.05-21.99-1.67-27.48,6.15c-8.8,12.51-11.5,26.79-9.12,41.88
	c0.89,5.65,4.73,8.86,10.25,10.28c12.31,3.17,23.4-1.95,28.75-13.55c3.84-8.31,5.3-17.17,5.83-26.21
	C-1644.55,609.386-1644.55,605.795-1645.83,602.306z M-1352.09,594.206c-1.07-0.1-1.84-0.23-2.61-0.24
	c-6.91-0.05-6.91-0.04-8.15,6.8c-2.38,13.15-4.69,26.31-7.19,39.44c-0.83,4.34-5.21,6.56-10.73,5.86c-5.08-0.64-7.43-3.12-7.18-8.19
	c0.15-3.06,0.81-6.11,1.35-9.15c1.75-9.87,3.58-19.72,5.31-29.59c0.29-1.7,1.08-3.74-0.82-4.94c-3.32-2.11-9.28,0.51-10.01,4.37
	c-1.56,8.34-3.02,16.69-4.52,25.04c-0.86,4.81-1.87,9.6-2.53,14.43c-1.25,9.18,2.07,13.49,11.04,15.25
	c3.95,0.77,7.75,0.36,11.38-0.96c3.04-1.11,5.44-2.44,8.89-0.15c1.57,1.03,6.32,2.3,7.18-2.74c3.03-17.72,6.11-35.44,9.14-53.17
	C-1351.47,595.815-1351.79,595.295-1352.09,594.206z M-1588.56,594.266c-1.45-0.15-2.22-0.3-2.98-0.29
	c-5.62,0.07-7.08-1.59-8.31,6.73c-1.96,13.21-4.58,26.33-7.08,39.46c-0.83,4.36-5.16,6.58-10.69,5.91
	c-5.13-0.62-7.46-3.07-7.22-8.15c0.15-3.07,0.82-6.11,1.35-9.15c1.75-9.87,3.56-19.73,5.29-29.6c0.29-1.71,1.08-3.75-0.76-4.97
	c-3.21-2.14-9.33,0.52-10.05,4.32c-1.49,7.83-2.87,15.68-4.27,23.52c-0.99,5.57-2.17,11.12-2.85,16.72
	c-1.02,8.43,2.21,12.49,10.31,14.34c4.75,1.08,9.24,0.5,13.57-1.32c2.42-1.02,3.94-1.13,6.65,0.25c4.88,2.48,7.65,0.33,8.72-5.55
	c1.84-10.12,3.67-20.24,5.23-30.4C-1590.57,609.036-1588.24,602.136-1588.56,594.266z M-1696.89,570.806
	c-4.33-0.57-8.68-1.32-13.03-1.34c-15.83-0.07-23.76,6.71-26.49,22.23c-1.74,9.88,1.12,16.14,9.88,21.38
	c3.53,2.12,7.25,3.92,10.75,6.09c4.7,2.92,6.21,7.21,5.16,12.63c-1.5,7.78-5.91,12.33-13.99,13.14c-6.14,0.61-12.34,0.51-18.52,0.73
	c-2.15,0.07-3.29,1.13-3.42,3.32c-0.13,2.02,1.22,2.8,2.77,3.05c4.82,0.77,9.67,1.37,12.33,1.73c20.77-0.18,30.03-7.58,32.33-24.27
	c1.13-8.16-1.57-14.72-8.86-19.01c-3.1-1.83-6.35-3.42-9.46-5.23c-7.25-4.21-9.22-8.43-7.53-15.9c1.68-7.47,6.2-11.22,14.25-11.56
	c4.37-0.19,8.76-0.11,13.14-0.05c2.49,0.04,3.82-0.88,3.98-3.52C-1693.45,571.755-1695.03,571.045-1696.89,570.806z
	 M-1506.33,592.716c-4.72-0.56-9.18,1.08-14.61,1.56c-0.14-6.09,1.52-11.26,2.24-16.54c0.92-6.82-0.28-7.99-7-7.02
	c-3.76,0.55-3.29,3.57-3.71,5.83c-2.82,15.45-5.45,30.93-8.16,46.39c-1.42,8.12-2.92,16.21-4.3,24.33
	c-0.28,1.69-1.17,3.71,0.76,4.96c3.3,2.16,9.27-0.39,9.98-4.27c2.42-13.16,4.7-26.35,7.12-39.51c1.2-6.57,5.36-9.4,11.8-8.24
	c4.62,0.84,7.21,4.05,6.69,8.76c-0.37,3.32-1.12,6.6-1.71,9.9c-1.72,9.63-3.47,19.25-5.13,28.89c-0.24,1.43-1.1,3.36,0.59,4.22
	c2.34,1.2,5.03,0.57,7.57,0.41c2.56-0.16,2.31-2.33,2.61-4.02c1.51-8.36,3.03-16.72,4.47-25.09c0.96-5.58,2.19-11.15,2.59-16.77
	C-1493.89,597.556-1497.42,593.766-1506.33,592.716z M-1297.95,606.815c-0.62-10.05-7.19-15.16-17.26-14.09
	c-2.76,0.29-5.47,1-8.08,1.49c-1.47-1.92-0.72-3.74-0.45-5.44c0.71-4.57,1.61-9.11,2.41-13.66c0.26-1.5,0.76-3.17-0.96-4.12
	c-4.15-2.3-9.32,0.21-10.24,5.1c-1.61,8.59-3.03,17.21-4.54,25.82c-2.53,14.43-4.91,28.88-7.69,43.26
	c-0.77,3.97,0.24,5.68,4.05,6.53c6.56,1.47,13.01,2.52,19.83,1.33c7.81-1.36,13.29-5.51,16.52-12.45
	C-1299.4,629.916-1297.21,618.536-1297.95,606.815z M-1403.01,583.846c-0.55-7.89-4.73-11.84-12.52-13.53
	c-7.98-1.72-15.88-0.64-23.79,0.4c-3.68,0.48-4.94,2.61-5.49,6.19c-1.72,11.18-3.87,22.29-5.81,33.44
	c-2.38,13.66-4.72,27.33-7.21,41.77c2.08,0.22,3.07,0.4,4.06,0.41c6.67,0.09,6.67,0.08,7.78-6.35c0.52-3.04,0.92-6.11,1.58-9.12
	c2.34-10.7,0.07-9.35,10.77-8.59c9.77,0.69,18.66-1.56,23.69-11.04C-1404.41,606.956-1402.2,595.605-1403.01,583.846z
	 M-1079.18,594.166c-4.43-2.06-9.08,0.33-10.01,5.34c-2.43,13.15-4.71,26.32-7.05,39.49c-0.36,1.99-0.16,4.32-2.36,5.38
	c-4.1,1.98-8.39,2.75-12.6,0.45c-4.26-2.33-3.65-6.33-3.02-10.21c0.09-0.51,0.3-0.99,0.39-1.5c2.02-11.39,4.03-22.79,6.03-34.19
	c0.26-1.46,1.03-3.06-0.36-4.32c-2.56-2.35-9.63-0.12-10.33,3.38c-1.5,7.57-2.81,15.17-4.13,22.77c-1.1,6.33-2.52,12.65-3.04,19.03
	c-0.68,8.43,2.29,11.54,10.46,13.41c5.25,1.2,10.12-0.54,15.82-1.2c-1.48,12.41-6.58,17.16-18,17.4c-2.57,0.06-5.15,0.03-7.73,0.05
	c-1.99,0.01-3.57,0.53-3.62,2.94c-0.04,1.98,1.35,2.68,2.88,3.03c16.3,3.65,31.51,1.15,36.95-18.89c1.89-6.93,2.95-14.08,4.26-21.16
	c2.24-12.14,4.41-24.29,6.52-36.45C-1077.84,597.286-1076.87,595.246-1079.18,594.166z"/>
<path fill-rule="evenodd" clip-rule="evenodd" fill="#154B21" d="M1917.81,880.846c-0.159,0.49-0.319,0.99-0.479,1.48
	c-3.13,0.21-6.13-0.38-9.15-1.18c-40.42-10.74-81.479-18.38-122.77-24.66c-25.44-3.87-50.93-7.56-76.58-10.02
	c-21.26-2.03-42.46-4.58-63.771-6.15c-22.59-1.67-45.149-3.47-67.77-4.69c-23.66-1.27-47.33-1.98-70.99-3.08
	c-59.31-2.76-118.63-1-177.939-0.94c-16.17,0.02-32.46,0.56-48.65,1.41c-20.29,1.06-40.59,2.49-60.79,4.65
	c-32.26,3.45-64.45,7.44-96.479,12.67c-35.11,5.72-70.04,12.39-104.87,19.61c-16.66,3.46-33.25,7.26-49.84,11.03
	c-3.48,0.79-7.11,1.46-9.76,4.3c-0.47,0.51-1.28,1.14-1.86,1.07c-10.05-1.22-19.24,2.83-28.7,4.85
	c-43.87,9.36-87.77,18.51-132.12,25.32c-20.11,3.09-40.19,6.52-60.39,8.79c-17.64,1.98-35.28,4-53.01,5.28
	c-17.46,1.26-34.95,2.01-52.39,3.22c-19.61,1.36-39.22,0.02-58.73,1.4c-36.35,2.56-72.72,1.4-109.05,0.95
	c-20.33-0.25-40.73-0.26-61.03-1.51c-11.85-0.73-23.72-0.33-35.49-1.4c-20.26-1.83-40.62-1.7-60.84-4.11
	c-7.9-0.94-15.91-1.12-23.87-1.64c-24.16-1.57-48.22-4.12-72.25-6.81c-25.31-2.83-50.57-6.33-75.77-10.19
	c-40.29-6.16-80.27-13.76-119.82-23.61c-4.98-1.23-9.74-3.58-15.08-2.97v-114.58h0.49v-218.26h523.19v0.13
	c461.49-0.18,922.97-0.12,1384.46-0.12c3.87,0,7.74,0.04,11.61,0.06c0.08,3.09,0.22,6.18,0.22,9.27
	c0.02,103.72,0.01,207.44,0.03,311.16C1917.57,874.666,1917.73,877.755,1917.81,880.846z"/>
<path fill-rule="evenodd" clip-rule="evenodd" fill="#112C1F" d="M1920.05,76.226c-0.02,11.79-0.189,23.59-0.3,35.39
	c-3.87-0.02-7.74-0.06-11.61-0.06c-493.909,0-987.82-0.07-1481.729,0.15c-31.82,0.01-61.12,9.9-85.75,30.53
	c-19.67,16.48-31.38,38.12-35.52,63.5c-2.03,12.43-2.68,25.09-4.74,37.51c-4.56,27.49-17.99,49.85-40.8,65.99
	c-18.07,12.79-38.34,20.44-60.64,20.53c-66.32,0.26-132.64,0.06-198.96,0.04V-0.004h1920
	C1920.02,25.406,1920.08,50.815,1920.05,76.226z"/>
<path fill-rule="evenodd" clip-rule="evenodd" fill="#A4B793" d="M1918.057,3699.415c0-352.799,0-705.598-0.011-1058.398
	c0-3.863-0.161-7.727-0.247-11.59l0.601,0.113l0.601-0.072l0.604,0.014c0,354.322,0.005,708.645-0.095,1062.967
	C1919.509,3694.714,1921.294,3697.698,1918.057,3699.415z"/>
<path fill-rule="evenodd" clip-rule="evenodd" fill="#B1C6A2" d="M1919.604,2629.481l-0.604-0.014l-0.601,0.072
	c-0.114-3.604-0.329-7.207-0.329-10.811c-0.016-316.178-0.014-632.357-0.024-948.535c0-3.864-0.147-7.728-0.226-11.592
	c0.159-0.495,0.319-0.99,0.478-1.486c0,0.001,0.654,0.02,0.654,0.02l0.652-0.042
	C1919.604,1981.224,1919.604,2305.351,1919.604,2629.481z"/>
<path fill-rule="evenodd" clip-rule="evenodd" fill="#A1B192" d="M1919.604,1657.094l-0.652,0.042c0,0-0.654-0.019-0.654-0.02
	c-0.085-3.091-0.245-6.181-0.245-9.272c-0.014-103.717-0.009-207.434-0.021-311.151c0-3.092-0.145-6.183-0.223-9.273
	c0.103-11.797,0.28-23.596,0.294-35.395c0.028-25.407-0.027-50.815-0.047-76.222c0.476,0.337,1.613-0.783,1.563,0.774
	c-0.065,2.063-0.016,4.129-0.016,6.193C1919.604,1367.545,1919.604,1512.319,1919.604,1657.094z"/>
<path fill-rule="evenodd" clip-rule="evenodd" fill="#B3BED3" d="M964.189,1473.846c-5.693,0.658-10.565,2.4-15.817,1.199
	c-8.167-1.869-11.143-4.979-10.458-13.404c0.518-6.385,1.938-12.7,3.037-19.033c1.319-7.601,2.628-15.206,4.135-22.771
	c0.698-3.504,7.766-5.727,10.332-3.382c1.385,1.266,0.611,2.859,0.354,4.324c-1.999,11.397-4.014,22.792-6.032,34.187
	c-0.089,0.505-0.302,0.99-0.383,1.496c-0.629,3.889-1.247,7.885,3.014,10.216c4.209,2.302,8.503,1.53,12.606-0.452
	c2.2-1.063,2.001-3.387,2.354-5.379c2.338-13.167,4.626-26.344,7.056-39.494c0.926-5.009,5.574-7.399,10.009-5.333
	c2.304,1.073,1.341,3.113,1.057,4.745c-2.114,12.161-4.28,24.314-6.521,36.453c-1.307,7.077-2.373,14.232-4.255,21.161
	c-5.446,20.042-20.652,22.538-36.951,18.886c-1.529-0.343-2.921-1.051-2.881-3.023c0.05-2.419,1.625-2.937,3.622-2.948
	c2.576-0.013,5.153,0.011,7.728-0.043C957.611,1491.01,962.714,1486.257,964.189,1473.846z"/>
<path fill-rule="evenodd" clip-rule="evenodd" fill="#B3BED3" d="M605.748,1473.972c2.488-14.441,4.823-28.114,7.203-41.778
	c1.941-11.146,4.097-22.258,5.814-33.438c0.549-3.579,1.808-5.708,5.485-6.191c7.917-1.038,15.813-2.118,23.79-0.393
	c7.79,1.684,11.973,5.635,12.52,13.525c0.814,11.758-1.395,23.115-6.94,33.579c-5.027,9.486-13.919,11.728-23.683,11.039
	c-10.707-0.755-8.431-2.108-10.773,8.593c-0.659,3.01-1.056,6.079-1.581,9.119c-1.11,6.434-1.112,6.445-7.779,6.353
	C608.813,1474.365,607.825,1474.187,605.748,1473.972z M622.374,1441.055c3.702,1.394,7.065,0.826,10.362,0.628
	c5.617-0.336,9.795-3.192,12.138-8.252c3.513-7.586,5.225-15.674,4.752-24.008c-0.456-8.049-11.876-13.569-18.902-9.46
	c-1.297,0.759-1.518,2.066-1.731,3.267C626.745,1415.832,624.568,1428.448,622.374,1441.055z"/>
<path fill-rule="evenodd" clip-rule="evenodd" fill="#B3BED3" d="M740.288,1416.065c2.604-0.491,5.316-1.194,8.073-1.487
	c10.068-1.069,16.638,4.042,17.267,14.091c0.734,11.724-1.452,23.097-6.415,33.766c-3.229,6.939-8.706,11.095-16.519,12.455
	c-6.816,1.187-13.269,0.135-19.83-1.329c-3.81-0.85-4.821-2.564-4.053-6.531c2.784-14.378,5.162-28.834,7.689-43.262
	c1.508-8.607,2.93-17.229,4.542-25.817c0.919-4.894,6.089-7.403,10.241-5.104c1.719,0.953,1.222,2.621,0.96,4.116
	c-0.798,4.555-1.697,9.094-2.41,13.663C739.567,1412.33,738.817,1414.151,740.288,1416.065z M735.78,1468.062
	c6.433,0.307,10.816-2.689,13.472-8.41c3.863-8.321,5.05-17.235,5.719-26.253c0.176-2.373-0.516-4.644-1.439-6.757
	c-1.564-3.581-5.264-5.374-9.685-4.567c-3.547,0.647-6.697,1.401-7.378,6.318c-1.553,11.216-3.939,22.314-5.824,33.489
	C729.63,1467.897,729.935,1468.104,735.78,1468.062z"/>
<path fill-rule="evenodd" clip-rule="evenodd" fill="#B3BED3" d="M542.633,1416.126c5.43-0.48,9.891-2.116,14.607-1.558
	c8.91,1.053,12.441,4.843,11.802,13.791c-0.401,5.623-1.635,11.191-2.594,16.768c-1.44,8.371-2.96,16.728-4.463,25.088
	c-0.305,1.697-0.057,3.864-2.614,4.024c-2.539,0.159-5.227,0.79-7.571-0.41c-1.692-0.866-0.832-2.795-0.586-4.223
	c1.662-9.639,3.409-19.263,5.127-28.892c0.588-3.295,1.346-6.572,1.71-9.892c0.518-4.715-2.065-7.926-6.694-8.76
	c-6.436-1.159-10.593,1.667-11.797,8.233c-2.415,13.164-4.698,26.352-7.114,39.516c-0.711,3.878-6.684,6.423-9.986,4.27
	c-1.926-1.255-1.04-3.276-0.753-4.962c1.379-8.118,2.872-16.216,4.294-24.327c2.711-15.465,5.345-30.946,8.165-46.391
	c0.413-2.259-0.057-5.285,3.705-5.829c6.722-0.971,7.917,0.199,6.999,7.017C544.158,1404.869,542.492,1410.04,542.633,1416.126z"/>
<path fill-rule="evenodd" clip-rule="evenodd" fill="#B2BDD1" d="M332.123,1475.618c-2.658-0.364-7.507-0.957-12.329-1.729
	c-1.552-0.249-2.905-1.034-2.776-3.056c0.139-2.185,1.276-3.246,3.424-3.319c6.177-0.214,12.385-0.113,18.521-0.728
	c8.075-0.81,12.492-5.362,13.993-13.134c1.048-5.428-0.462-9.718-5.167-12.633c-3.497-2.167-7.215-3.974-10.748-6.086
	c-8.762-5.24-11.618-11.506-9.881-21.38c2.731-15.528,10.66-22.306,26.488-22.237c4.35,0.019,8.705,0.777,13.039,1.342
	c1.859,0.242,3.436,0.949,3.287,3.42c-0.159,2.636-1.493,3.556-3.981,3.521c-4.38-0.062-8.768-0.136-13.142,0.049
	c-8.045,0.34-12.563,4.095-14.25,11.563c-1.686,7.465,0.28,11.689,7.529,15.901c3.115,1.811,6.363,3.395,9.467,5.224
	c7.283,4.292,9.984,10.854,8.859,19.017C362.157,1468.039,352.894,1475.437,332.123,1475.618z"/>
<path fill-rule="evenodd" clip-rule="evenodd" fill="#B3BED3" d="M475.015,1416.113c0.317,7.871-2.01,14.77-3.094,21.824
	c-1.56,10.162-3.384,20.284-5.227,30.399c-1.071,5.88-3.843,8.03-8.724,5.55c-2.708-1.375-4.231-1.272-6.651-0.253
	c-4.327,1.823-8.821,2.405-13.571,1.324c-8.101-1.844-11.321-5.909-10.304-14.335c0.677-5.608,1.855-11.156,2.847-16.724
	c1.397-7.843,2.783-15.688,4.269-23.515c0.722-3.807,6.839-6.467,10.052-4.33c1.844,1.226,1.055,3.27,0.757,4.972
	c-1.725,9.874-3.54,19.732-5.283,29.603c-0.537,3.038-1.208,6.085-1.353,9.15c-0.24,5.082,2.093,7.526,7.214,8.146
	c5.534,0.67,9.86-1.543,10.692-5.91c2.499-13.127,5.118-26.244,7.078-39.456c1.235-8.321,2.692-6.664,8.315-6.734
	C472.795,1415.814,473.56,1415.966,475.015,1416.113z"/>
<path fill-rule="evenodd" clip-rule="evenodd" fill="#B3BED3" d="M711.479,1416.053c0.307,1.099,0.628,1.616,0.552,2.064
	c-3.028,17.728-6.108,35.447-9.141,53.174c-0.86,5.032-5.604,3.769-7.172,2.732c-3.457-2.284-5.852-0.956-8.892,0.151
	c-3.629,1.322-7.43,1.736-11.386,0.962c-8.965-1.755-12.285-6.073-11.033-15.244c0.66-4.836,1.666-9.624,2.527-14.432
	c1.496-8.349,2.956-16.704,4.523-25.039c0.727-3.865,6.682-6.488,10.009-4.375c1.896,1.204,1.109,3.245,0.813,4.937
	c-1.729,9.872-3.556,19.726-5.307,29.593c-0.539,3.038-1.197,6.087-1.348,9.154c-0.249,5.066,2.096,7.552,7.182,8.19
	c5.519,0.692,9.899-1.523,10.726-5.86c2.5-13.128,4.809-26.293,7.193-39.443c1.241-6.842,1.242-6.849,8.15-6.797
	C709.643,1415.827,710.409,1415.954,711.479,1416.053z"/>
<path fill-rule="evenodd" clip-rule="evenodd" fill="#B3BED3" d="M418.986,1434.864c-0.532,9.045-1.998,17.908-5.831,26.213
	c-5.355,11.605-16.438,16.724-28.748,13.554c-5.527-1.423-9.365-4.63-10.256-10.284c-2.379-15.089,0.325-29.369,9.12-41.882
	c5.493-7.816,18.794-10.2,27.478-6.144c3.462,1.617,5.691,4.26,6.999,7.841C419.021,1427.651,419.024,1431.235,418.986,1434.864z
	 M408.2,1436.036c-0.066-3.582,0.03-5.862-0.697-8.129c-2.142-6.688-7.626-8.482-13.027-4.09c-3.071,2.498-4.873,5.875-6.196,9.554
	c-2.451,6.815-3.457,13.914-4.064,21.068c-0.639,7.525,1.604,12.631,5.759,13.774c4.675,1.286,9.67-2.036,12.803-8.851
	C406.358,1451.574,407.534,1443.21,408.2,1436.036z"/>
<path fill-rule="evenodd" clip-rule="evenodd" fill="#B4BED4" d="M504.446,1403.375c0.77,4.614-1.12,8.54-0.981,13.015
	c3.852,1.067,7.69,0.311,11.439,0.591c1.38,0.103,3.362-0.624,3.598,1.695c0.225,2.2-0.244,4.155-2.955,4.581
	c-3.304,0.519-6.589,1.369-9.908,1.516c-3.218,0.142-4.425,1.517-4.903,4.563c-1.517,9.669-3.494,19.271-4.854,28.96
	c-0.972,6.919,1.519,9.471,8.413,9.744c1.03,0.041,2.078-0.098,3.092,0.039c1.607,0.217,3.93-0.891,4.487,1.591
	c0.569,2.532-1.21,3.881-3.421,4.258c-4.294,0.733-8.529,2.091-12.995,1.4c-7.692-1.19-10.827-4.574-10.882-12.433
	c-0.054-7.52,2.22-14.754,3.157-22.161c0.419-3.319,0.948-6.646,1.749-9.89c0.833-3.374,1.415-6.162-3.603-6.032
	c-1.602,0.042-1.907-1.444-1.674-2.827c0.327-1.946-0.023-4.927,2.694-4.808c4.551,0.2,5.552-2.339,6.247-5.922
	C494.795,1402.751,494.867,1402.765,504.446,1403.375z"/>
<path fill-rule="evenodd" clip-rule="evenodd" fill="#B3BED3" d="M920.144,1403.503c-0.572,4.514-1.081,8.527-1.623,12.804
	c3.767,1.169,7.366,0.323,10.861,0.681c1.561,0.16,3.989-1.05,4.292,1.75c0.283,2.622-0.874,4.376-3.831,4.699
	c-3.066,0.334-6.091,1.274-9.15,1.359c-3.304,0.092-4.357,1.599-4.82,4.626c-1.401,9.164-3.335,18.252-4.552,27.438
	c-1.191,8.996,0.78,10.842,9.847,11.262c1.997,0.092,5.217-1.553,5.795,1.801c0.603,3.495-2.567,3.938-5.104,4.422
	c-2.528,0.481-5.077,1.008-7.637,1.141c-10.197,0.531-15.644-4.997-14.503-15.135c0.777-6.9,2.227-13.725,3.405-20.579
	c0.611-3.554,1.302-7.093,1.928-10.644c0.393-2.23,0.389-4.223-2.752-4.149c-1.63,0.038-3.334-0.167-3.048-2.344
	c0.282-2.143-0.239-5.551,2.907-5.448c4.682,0.153,5.748-2.455,6.075-6.06C908.952,1403.196,908.485,1402.258,920.144,1403.503z"/>
<path fill-rule="evenodd" clip-rule="evenodd" fill="#B3BED3" d="M826.844,1452.647c0.464-5.891,1.781-15.042,5.554-23.622
	c5.599-12.732,21.116-18.551,33.778-12.84c1.251,0.564,2.215,1.258,2.124,2.806c-0.106,1.802-0.979,2.875-2.848,2.909
	c-2.831,0.051-5.666,0.153-8.493,0.051c-6.36-0.229-10.896,2.519-13.6,8.216c-4.041,8.513-5.692,17.643-5.688,26.931
	c0.003,7.542,3.49,10.526,11.083,10.894c2.826,0.137,5.664,0,8.492,0.098c1.178,0.041,2.738-0.286,3.034,1.498
	c0.279,1.679-0.315,3.04-1.956,3.755c-3.361,1.465-7.031,1.861-10.556,2.007C831.364,1476.031,826.155,1469.744,826.844,1452.647z"
	/>
<path fill-rule="evenodd" clip-rule="evenodd" fill="#B3BED3" d="M777.607,1474.396c-5.067-0.073-5.316-0.198-4.573-4.443
	c4.206-24.028,8.457-48.048,12.769-72.058c0.866-4.821,4.567-6.715,9.398-5.196c2.557,0.804,1.848,2.749,1.577,4.41
	c-0.868,5.321-1.883,10.618-2.811,15.929c-3.228,18.466-6.413,36.94-9.682,55.399
	C783.233,1474.375,783.007,1474.473,777.607,1474.396z"/>
<path fill-rule="evenodd" clip-rule="evenodd" fill="#B2BDD1" d="M804.433,1474.4c-5.124-0.032-5.333-0.067-4.494-5.115
	c2.69-16.197,5.504-32.375,8.402-48.536c0.328-1.826,0.143-4.519,2.908-4.799c2.511-0.255,5.222-0.802,7.558,0.433
	c1.699,0.898,0.741,2.678,0.483,4.159c-1.982,11.374-3.917,22.756-5.88,34.133c-0.829,4.802-1.667,9.602-2.542,14.396
	C809.901,1474.371,809.798,1474.435,804.433,1474.4z"/>
<path fill-rule="evenodd" clip-rule="evenodd" fill="#B3BED3" d="M874.522,1474.395c-5.123-0.017-5.343-0.135-4.451-5.235
	c2.786-15.92,5.637-31.829,8.572-47.722c1.072-5.808,1.211-5.783,6.804-5.631c4.548,0.124,4.927,0.434,4.18,4.938
	c-1.553,9.365-3.24,18.708-4.917,28.053c-1.223,6.816-2.467,13.629-3.792,20.426
	C879.904,1474.424,879.841,1474.412,874.522,1474.395z"/>
<path fill-rule="evenodd" clip-rule="evenodd" fill="#B3BED3" d="M881.107,1407.501c0.206-1.441,0.332-2.423,0.488-3.399
	c1.526-9.525,1.527-9.525,11.683-8.333c0,0.964,0.084,1.959-0.013,2.937C892.297,1408.452,892.289,1408.452,881.107,1407.501z"/>
<path fill-rule="evenodd" clip-rule="evenodd" fill="#B4BED4" d="M822.905,1395.2c0.795,3.733-0.636,6.36-0.792,9.108
	c-0.176,3.096-1.836,3.971-4.517,3.693c-2.196-0.227-4.705,0.881-6.482-1.19c-0.702-0.817,1.417-10.472,2.319-10.984
	c0.635-0.36,1.431-0.576,2.164-0.6C817.88,1395.153,820.167,1395.2,822.905,1395.2z"/>
<path fill-rule="evenodd" clip-rule="evenodd" fill="#276232" d="M169.893,1454.295c-0.265-2.189,0.853-3.988,1.676-5.865
	c0.854-1.946,1.82-3.838-0.877-5.249c-0.577-0.301-1.366-1.371-1.213-1.717c3.156-7.208-3.052-6.282-6.414-6.956
	c-12.128-2.434-24.339-4.46-36.519-6.639c-0.958-0.171-2.039-0.065-2.822-1.688c2.349-1.312,4.921-0.844,7.348-0.857
	c10.059-0.053,20.118,0.026,30.176-0.041c8.167-0.054,9.85-1.698,8.904-9.451c-0.394-3.225-1.414-5.9,3.026-7.083
	c1.545-0.412,1.374-2.646,0.469-4.065c-1.522-2.389-3.169-4.701-4.825-7.001c-1.606-2.231-3.493-4.299-4.235-7.146
	c2.732-0.855,3.621,1.11,4.766,2.244c6.963,6.896,13.835,13.884,20.743,20.836c1.271,1.279,2.426,2.732,3.88,3.756
	c3.182,2.241,6.213,1.181,6.987-2.632c0.819-4.033,0.554-8.166,0.062-12.768c-3.441,0.403-5.179,3.417-8.065,4.14
	c-3.577,0.897-6.753-0.293-8.282-3.64c-0.597-1.306,0.748-7.885,1.787-8.676c0.193-0.146,0.471-0.341,0.665-0.3
	c7.811,1.619,6.517-4.815,7.304-8.741c2.077-10.359,3.631-20.822,5.458-31.231c0.435-2.477,1.127-4.909,1.767-7.646
	c2.581,1.773,1.8,4.023,1.815,5.903c0.091,11.347,0.039,22.696,0.059,34.044c0.004,2.054-0.195,4.166,0.727,6.088
	c0.603,1.257,1.751,1.853,3.158,1.75c1.572-0.114,2.444-1.169,2.154-2.579c-1-4.859,2.482-6.71,5.532-9.179
	c24.151-19.545,51.129-33.748,80.752-42.958c10.097-3.14,20.343-5.571,31.261-4.231c-4.976,2.69-9.985,5.211-14.94,7.786
	c-26.393,13.718-47.939,32.85-64.787,57.301c-2.185,3.17-4.143,6.548-5.789,10.027c-2.991,6.325-2.393,7.592,4.335,8.92
	c9.101,1.796,18.257,3.317,27.399,4.901c2.702,0.468,5.528,0.452,8.563,2.515c-2.923,1.752-5.518,1.254-7.959,1.268
	c-10.316,0.057-20.634-0.041-30.95,0.055c-7.639,0.07-8.987,1.649-8.428,9.218c0.204,2.751,2.548,5.906-2.59,7.25
	c-2.568,0.671-1.179,3.377-0.114,5.217c2.55,4.407,6.573,7.883,8.558,13.173c-2.531,0.733-3.55-1.016-4.677-2.14
	c-7.665-7.652-15.25-15.385-22.912-23.041c-1.74-1.738-3.153-4.565-6.303-3.386c-3.407,1.276-2.854,4.494-2.987,7.279
	c-0.037,0.772-0.031,1.548,0.005,2.321c0.277,5.862,0.89,6.307,6.362,4.197c2.636-1.017,4.942-2.488,7.812-0.052
	c4.821,4.092,5.288,9.456-0.344,12.224c-6.163,3.028-7.476,7.904-8.439,13.638c-1.537,9.151-3.244,18.273-4.894,27.406
	c-0.176,0.975-0.234,2.042-1.416,2.627c-2.024-1.145-1.191-3.164-1.206-4.78c-0.087-9.8-0.039-19.601-0.047-29.401
	c-0.001-1.805,0.007-3.614-0.098-5.414c-0.146-2.479-0.746-4.927-3.9-4.538c-2.979,0.368-2.377,2.81-2.062,4.857
	c0.157,1.018,0.338,2.041,0.61,3.033c1.352,4.935-0.541,8.388-4.634,11.163c-10.469,7.1-21.272,13.634-32.553,19.343
	c-17.093,8.65-34.854,15.483-53.705,19.272c-4.028,0.809-7.984,0.772-12.92,0.196c2.429-3.146,5.226-3.865,7.619-5.023
	c25.788-12.486,47.031-30.485,64.591-52.985c1.566-2.006,2.714-4.475,5.637-4.919c0.902,3.461,2.08,1.929,3.267,0.178
	c0.499-0.446,1.277-1.147,0.63-1.593c-0.705-0.486-0.941,0.553-1.188,1.125C171.738,1454.056,170.815,1454.175,169.893,1454.295z
	 M128.289,1504.003c1.232-0.099,2.281-0.584,3.126-1.494c3.336-0.285,6.205-1.434,8.099-4.384c1.227-0.354,2.582-0.482,3.662-1.096
	c15.263-8.675,28.712-19.695,41.292-31.87c2.582-2.5,1.892-5.004,1.029-7.742l0.27-0.499l-0.478,0.283
	c-1.661,0.266-2.592,1.491-3.666,2.624c-7.441,7.851-14.846,15.753-23.392,22.444c-6.477,5.071-13.056,10.011-19.585,15.014
	c-2.831,1.124-5.685,2.21-7.609,4.779c-1.17,0.257-2.28,0.623-3.046,1.632c-0.129,0.129-0.273,0.249-0.374,0.397
	c-0.015,0.023,0.225,0.277,0.254,0.26C128.026,1504.265,128.152,1504.125,128.289,1504.003z M238.081,1390.811
	c-0.665,0.896-1.33,1.791-1.995,2.686c-9.749,6.839-17.167,16.134-25.524,24.428c-2.629,2.608-1.163,7.05,2.588,7.736
	c5.563,1.019,11.297,1.44,17.201-0.419c-0.756-0.931-1.005-1.415-1.398-1.695c-8.077-5.739-8.351-9.142-1.854-16.645
	c3.5-4.043,7.521-7.755,9.64-12.857c0.954-0.902,1.339-2.021,1.268-3.313l0.406-0.217L238.081,1390.811z M279.696,1353.412
	c-2.576-0.007-4.673,0.969-6.245,3.031c-9.474,3.77-17.182,10.238-24.817,16.687c-5.63,4.755-12.089,8.812-15.517,15.781
	c-0.729,0.4-2.242,0.704-1.556,1.618c0.611,0.813,1.449-0.448,2-1.122c1.148-0.538,2.326-1.023,3.441-1.623
	c7.779-4.186,12.971-11.436,19.792-16.797c5.787-4.548,12.47-8.028,17.23-13.858c2.403-0.415,4.576-1.231,5.969-3.412
	c0.129-0.128,0.273-0.248,0.374-0.396c0.015-0.022-0.225-0.276-0.253-0.259C279.958,1353.15,279.833,1353.29,279.696,1353.412z
	 M176.718,1449.121c4.451-2.167,16.606-13.285,18.033-16.16c1.336-2.692,0.423-5.655-2.476-6.03
	c-5.609-0.724-11.316-1.039-18.346,0.533c5.214,2.632,7.742,5.567,8.441,10.066C183.142,1442.491,177.721,1444.075,176.718,1449.121
	z M206.268,1426.239c-0.436-2.251-1.625-3.851-4.07-3.743c-2.008,0.089-3.427,1.463-3.579,3.409
	c-0.206,2.651,1.664,3.504,3.993,3.472C204.646,1429.35,206.029,1428.452,206.268,1426.239z M216.032,1433.457
	c2.109,2.538,3.728,4.116,6.256,2.451c0.457-0.302,0.828-1.62,0.565-1.984C221.124,1431.524,218.92,1432.571,216.032,1433.457z
	 M187.285,1418.189c-0.727-1.439-1.922-2.227-3.561-2.004c-1.055,0.143-1.91,1.003-1.81,2.013c0.207,2.075,1.948,1.84,3.389,1.756
	C186.316,1419.895,187.206,1419.476,187.285,1418.189z M194.365,1441.818c-1.141,0.741-2.244,1.675-2.122,3.363
	c0.077,1.065,0.808,1.855,1.88,1.944c1.643,0.136,2.057-1.053,2.004-2.373C196.081,1443.613,196.363,1442.186,194.365,1441.818z
	 M212.661,1407.94c0.025-1.296-0.662-2.079-1.767-2.22c-1.712-0.219-2.201,0.991-2.144,2.396c0.047,1.176-0.186,2.916,1.726,2.635
	C211.809,1410.556,212.39,1409.182,212.661,1407.94z M123.378,1506.358l0.444-0.213l-0.437-0.214L123.378,1506.358z"/>
<path fill-rule="evenodd" clip-rule="evenodd" fill="#194D25" d="M622.374,1441.055c2.195-12.607,4.371-25.223,6.619-37.826
	c0.214-1.2,0.435-2.508,1.731-3.267c7.025-4.108,18.446,1.411,18.902,9.46c0.473,8.334-1.239,16.422-4.752,24.008
	c-2.343,5.06-6.521,7.916-12.138,8.252C629.439,1441.881,626.075,1442.448,622.374,1441.055z"/>
<path fill-rule="evenodd" clip-rule="evenodd" fill="#194D25" d="M735.781,1468.063c-5.847,0.041-6.151-0.167-5.136-6.182
	c1.885-11.174,4.271-22.272,5.824-33.489c0.681-4.917,3.831-5.671,7.378-6.318c4.421-0.807,8.121,0.986,9.685,4.567
	c0.923,2.114,1.615,4.385,1.439,6.757c-0.668,9.018-1.855,17.932-5.719,26.253C746.596,1465.373,742.213,1468.368,735.781,1468.063z
	"/>
<path fill-rule="evenodd" clip-rule="evenodd" fill="#194D25" d="M408.2,1436.036c-0.667,7.174-1.842,15.538-5.421,23.327
	c-3.133,6.815-8.128,10.137-12.803,8.851c-4.155-1.143-6.398-6.25-5.759-13.774c0.607-7.154,1.613-14.253,4.064-21.068
	c1.323-3.68,3.125-7.056,6.196-9.554c5.401-4.393,10.885-2.598,13.027,4.09C408.23,1430.173,408.134,1432.454,408.2,1436.036z"/>
<path fill-rule="evenodd" clip-rule="evenodd" fill="#133022" d="M236.742,1394.047c-2.123,5.1-6.144,8.812-9.644,12.855
	c-6.496,7.503-6.223,10.905,1.854,16.645c0.394,0.28,0.643,0.764,1.398,1.695c-5.904,1.859-11.639,1.438-17.201,0.419
	c-3.75-0.687-5.217-5.128-2.588-7.736c8.357-8.293,15.776-17.588,25.524-24.428C236.304,1393.681,236.522,1393.865,236.742,1394.047
	z"/>
<path fill-rule="evenodd" clip-rule="evenodd" fill="#133022" d="M185.498,1457.419c0.86,2.736,1.551,5.24-1.031,7.74
	c-12.579,12.174-26.028,23.195-41.292,31.87c-1.08,0.613-2.435,0.742-3.666,1.092c-0.295-0.28-0.583-0.559-0.868-0.84
	c6.533-4.999,13.112-9.939,19.589-15.01c8.546-6.691,15.951-14.593,23.392-22.444c1.074-1.133,2.005-2.358,3.666-2.624
	L185.498,1457.419z"/>
<path fill-rule="evenodd" clip-rule="evenodd" fill="#122F21" d="M176.718,1449.121c1.002-5.046,6.423-6.629,5.653-11.59
	c-0.699-4.499-3.227-7.434-8.441-10.066c7.029-1.572,12.737-1.257,18.346-0.533c2.898,0.375,3.812,3.338,2.476,6.03
	C193.324,1435.835,181.169,1446.953,176.718,1449.121z"/>
<path fill-rule="evenodd" clip-rule="evenodd" fill="#133022" d="M274.032,1357.139c-4.768,5.819-11.451,9.299-17.238,13.848
	c-6.821,5.361-12.013,12.611-19.792,16.797c-1.115,0.6-2.292,1.084-3.441,1.623l-0.452-0.506
	c3.436-6.959,9.895-11.016,15.525-15.771c7.635-6.449,15.344-12.917,24.817-16.687
	C273.647,1356.672,273.841,1356.905,274.032,1357.139z"/>
<path fill-rule="evenodd" clip-rule="evenodd" fill="#122F21" d="M206.268,1426.239c-0.239,2.212-1.622,3.111-3.656,3.138
	c-2.33,0.032-4.199-0.821-3.993-3.472c0.151-1.946,1.57-3.32,3.579-3.409C204.642,1422.389,205.832,1423.988,206.268,1426.239z"/>
<path fill-rule="evenodd" clip-rule="evenodd" fill="#153624" d="M216.032,1433.457c2.888-0.886,5.092-1.933,6.821,0.467
	c0.262,0.364-0.108,1.682-0.565,1.984C219.759,1437.573,218.141,1435.995,216.032,1433.457z"/>
<path fill-rule="evenodd" clip-rule="evenodd" fill="#153624" d="M187.285,1418.189c-0.079,1.287-0.968,1.706-1.981,1.765
	c-1.44,0.084-3.182,0.319-3.389-1.756c-0.101-1.01,0.754-1.87,1.81-2.013C185.363,1415.962,186.558,1416.75,187.285,1418.189z"/>
<path fill-rule="evenodd" clip-rule="evenodd" fill="#153624" d="M194.365,1441.818c1.999,0.368,1.716,1.795,1.762,2.935
	c0.053,1.32-0.361,2.509-2.004,2.373c-1.072-0.089-1.803-0.879-1.88-1.944C192.121,1443.493,193.224,1442.559,194.365,1441.818z"/>
<path fill-rule="evenodd" clip-rule="evenodd" fill="#153624" d="M212.661,1407.94c-0.271,1.242-0.853,2.616-2.185,2.811
	c-1.912,0.281-1.679-1.458-1.726-2.635c-0.057-1.405,0.432-2.615,2.144-2.396C212,1405.861,212.686,1406.644,212.661,1407.94z"/>
<path fill-rule="evenodd" clip-rule="evenodd" fill="#133022" d="M131.032,1502.059c1.928-2.564,4.782-3.651,7.611-4.777
	c0.284,0.28,0.571,0.559,0.866,0.839c-1.89,2.955-4.758,4.104-8.098,4.385C131.409,1502.502,131.032,1502.059,131.032,1502.059z"/>
<path fill-rule="evenodd" clip-rule="evenodd" fill="#133022" d="M273.452,1356.442c1.571-2.062,3.669-3.038,6.245-3.031
	l0.299,0.308c-1.396,2.178-3.569,2.995-5.968,3.415C273.841,1356.905,273.647,1356.672,273.452,1356.442z"/>
<path fill-rule="evenodd" clip-rule="evenodd" fill="#122F21" d="M169.893,1454.295c0.922-0.12,1.845-0.24,2.768-0.359l0.56,0.469
	c-1.189,1.749-2.367,3.281-3.269-0.18L169.893,1454.295z"/>
<path fill-rule="evenodd" clip-rule="evenodd" fill="#133022" d="M233.561,1389.406c-0.55,0.674-1.389,1.935-2,1.122
	c-0.686-0.914,0.827-1.217,1.552-1.623C233.109,1388.9,233.561,1389.406,233.561,1389.406z"/>
<path fill-rule="evenodd" clip-rule="evenodd" fill="#122F21" d="M172.661,1453.936c0.248-0.573,0.483-1.612,1.188-1.125
	c0.647,0.446-0.131,1.147-0.63,1.593C173.221,1454.405,172.661,1453.936,172.661,1453.936z"/>
<path fill-rule="evenodd" clip-rule="evenodd" fill="#133022" d="M236.086,1393.497c0.665-0.896,1.33-1.791,1.995-2.686l-0.077-0.08
	c0.073,1.294-0.313,2.413-1.265,3.315C236.522,1393.865,236.304,1393.681,236.086,1393.497z"/>
<polygon fill-rule="evenodd" clip-rule="evenodd" fill="#133022" points="123.378,1506.358 123.385,1505.931 123.822,1506.145 "/>
<path fill-rule="evenodd" clip-rule="evenodd" fill="#133022" d="M127.987,1503.692c0.769-1.006,1.879-1.373,3.047-1.632
	c-0.002-0.002,0.375,0.441,0.377,0.445c-0.842,0.914-1.891,1.398-3.123,1.498L127.987,1503.692z"/>
<path fill-rule="evenodd" clip-rule="evenodd" fill="#133022" d="M279.696,1353.412c0.136-0.122,0.262-0.262,0.417-0.351
	c0.028-0.017,0.268,0.237,0.253,0.259c-0.101,0.148-0.244,0.268-0.372,0.398C279.996,1353.719,279.696,1353.412,279.696,1353.412z"
	/>
<polygon fill-rule="evenodd" clip-rule="evenodd" fill="#133022" points="185.288,1457.202 185.766,1456.919 185.497,1457.418 "/>
<polygon fill-rule="evenodd" clip-rule="evenodd" fill="#133022" points="238.081,1390.811 238.411,1390.514 238.005,1390.731 "/>
<path fill-rule="evenodd" clip-rule="evenodd" fill="#133022" d="M128.289,1504.003c-0.137,0.122-0.263,0.262-0.418,0.35
	c-0.029,0.017-0.269-0.237-0.254-0.26c0.101-0.149,0.244-0.269,0.372-0.399C127.987,1503.692,128.289,1504.003,128.289,1504.003z"/>
</svg>
